<svg xmlns="http://www.w3.org/2000/svg" xmlns:xlink="http://www.w3.org/1999/xlink" width="450" zoomAndPan="magnify" viewBox="0 0 337.5 337.500003" height="450" preserveAspectRatio="xMidYMid meet" version="1.0"><defs><clipPath id="23109ce019"><path d="M 0 0 L 337 0 L 337 337 L 0 337 Z M 0 0 " clip-rule="nonzero"/></clipPath><clipPath id="2ab892be87"><path d="M 42.332031 72 L 153 72 L 153 249 L 42.332031 249 Z M 42.332031 72 " clip-rule="nonzero"/></clipPath><clipPath id="662dc673f6"><path d="M 188 50 L 295.457031 50 L 295.457031 241 L 188 241 Z M 188 50 " clip-rule="nonzero"/></clipPath><clipPath id="c4425a30b1"><path d="M 118 259 L 222 259 L 222 287.855469 L 118 287.855469 Z M 118 259 " clip-rule="nonzero"/></clipPath></defs><g clip-path="url(#23109ce019)"><path fill="#ffb1a5" d="M 168.75 0 C 75.550781 0 0 75.550781 0 168.75 C 0 261.949219 75.550781 337.5 168.75 337.5 C 261.949219 337.5 337.5 261.949219 337.5 168.75 C 337.5 75.550781 261.949219 0 168.75 0 " fill-opacity="1" fill-rule="nonzero"/></g><g clip-path="url(#2ab892be87)"><path fill="#ffffff" d="M 42.378906 138.996094 L 43.671875 147.132812 L 44.320312 151.1875 L 44.480469 152.203125 L 44.585938 152.785156 L 44.710938 153.289062 L 45.234375 155.300781 C 45.976562 157.984375 46.898438 160.617188 47.9375 163.175781 C 48.988281 165.738281 50.085938 168.230469 51.25 170.746094 C 52.335938 172.984375 53.421875 175.222656 54.953125 177.328125 C 54.800781 177.21875 54.667969 177.105469 54.488281 177.003906 C 54.152344 176.832031 53.671875 176.550781 53.007812 176.757812 C 52.351562 176.988281 52.113281 177.578125 52.011719 177.957031 C 51.898438 178.371094 51.871094 178.75 51.855469 179.117188 C 51.855469 179.851562 51.894531 180.582031 52.039062 181.289062 C 52.296875 182.710938 52.800781 184.046875 53.398438 185.3125 C 54.597656 187.84375 56.132812 190.152344 57.648438 192.429688 C 59.179688 194.707031 60.664062 196.996094 62.308594 199.230469 C 63.132812 200.339844 64.101562 201.429688 65.183594 202.308594 C 66.230469 203.191406 67.320312 204.089844 68.566406 204.789062 C 71.058594 206.234375 74.132812 206.515625 76.867188 205.808594 C 79.597656 205.082031 82.117188 203.664062 84.140625 201.722656 C 86.125 199.804688 87.957031 197.707031 89.570312 195.496094 C 90.386719 194.4375 91.242188 193.277344 92.5 193.230469 C 93.710938 193.160156 95.128906 193.851562 95.390625 195.046875 C 95.632812 196.261719 95.019531 197.582031 94.394531 198.742188 C 93.71875 199.914062 92.996094 201.085938 92.164062 202.140625 C 88.660156 206.296875 84.15625 209.539062 79.980469 213.023438 C 79.121094 213.300781 78.214844 213.664062 77.417969 214.179688 C 77.023438 214.441406 76.632812 214.753906 76.367188 215.179688 C 76.078125 215.601562 76.054688 216.210938 76.3125 216.648438 C 77.457031 218.320312 79.382812 218.914062 81.050781 219.703125 C 84.4375 221.296875 88.292969 222.144531 92.074219 221.738281 C 95.882812 221.410156 99.425781 219.941406 102.914062 218.628906 C 106.464844 217.378906 109.804688 215.132812 112.085938 212.046875 C 112.976562 210.242188 114.1875 208.863281 115.609375 207.792969 C 115.824219 208.445312 116.015625 209.097656 116.238281 209.746094 C 119.023438 217.519531 123.359375 224.6875 128.421875 231.136719 C 133.519531 237.546875 139.15625 243.570312 145.46875 248.765625 L 145.609375 248.613281 C 139.8125 242.871094 134.527344 236.6875 129.675781 230.175781 C 124.816406 223.699219 120.773438 216.65625 117.835938 209.136719 C 117.542969 208.414062 117.289062 207.671875 117.011719 206.9375 C 121.140625 204.570312 126.546875 204.144531 131.335938 203.679688 C 135.171875 203.617188 138.988281 202.113281 142.019531 199.792969 C 145.085938 197.484375 147.613281 194.519531 149.472656 191.164062 C 151.457031 187.816406 151.992188 183.796875 152.070312 180.066406 C 152.148438 176.292969 152.195312 172.574219 152.058594 168.789062 C 151.953125 166.894531 151.855469 165.011719 151.359375 163.070312 C 151.230469 162.585938 151.0625 162.09375 150.757812 161.582031 C 150.546875 161.332031 150.417969 161.027344 149.957031 160.851562 C 149.570312 160.613281 149.027344 160.703125 148.707031 160.851562 C 147.878906 161.339844 147.453125 161.914062 147.085938 162.5 C 148.359375 158.746094 149.027344 154.789062 149.1875 150.890625 C 149.371094 147.078125 149.222656 143.296875 148.542969 139.480469 C 148.351562 138.496094 148.03125 137.59375 147.902344 136.769531 C 147.734375 135.9375 147.777344 135.039062 147.578125 133.964844 C 147.394531 132.949219 146.917969 131.90625 146.375 131.089844 C 146.082031 130.652344 145.695312 130.121094 144.976562 129.816406 C 144.253906 129.527344 143.464844 129.679688 142.9375 129.945312 C 141.863281 130.484375 141.195312 131.253906 140.554688 132.023438 C 139.941406 132.789062 139.363281 133.671875 139 134.648438 C 138.304688 136.59375 138.105469 138.410156 137.664062 140.226562 C 136.765625 143.8125 136.089844 147.539062 134.796875 150.957031 C 133.472656 154.339844 131.671875 157.644531 129.015625 160.066406 C 127.683594 161.289062 126.226562 162.59375 124.742188 162.957031 C 124.015625 163.109375 123.554688 162.882812 123.1875 162.210938 C 122.835938 161.539062 122.714844 160.699219 122.832031 159.933594 C 123.109375 158.339844 124.277344 156.871094 125.445312 155.457031 C 126.664062 154.050781 127.824219 152.476562 128.871094 150.925781 C 130.96875 147.769531 132.839844 144.480469 134.226562 140.90625 C 136.929688 133.753906 136.890625 125.589844 134.007812 118.523438 C 133.308594 116.753906 132.503906 115.035156 131.609375 113.382812 L 128.664062 108.539062 C 127.691406 106.914062 126.617188 105.394531 125.527344 103.84375 C 124.96875 103.078125 124.394531 102.316406 123.710938 101.605469 C 123.347656 101.261719 122.992188 100.902344 122.433594 100.648438 C 122.179688 100.515625 121.78125 100.460938 121.410156 100.5625 C 121.03125 100.679688 120.769531 100.964844 120.621094 101.210938 C 120.054688 102.242188 120.042969 103.195312 119.929688 104.152344 C 119.855469 105.101562 119.808594 106.035156 119.777344 106.980469 C 119.710938 108.863281 119.742188 110.757812 119.878906 112.644531 C 120.199219 116.410156 120.835938 120.085938 120.019531 123.710938 C 119.339844 127.335938 117.652344 130.699219 115.601562 133.785156 C 114.570312 135.335938 113.5 136.859375 112.308594 138.28125 C 111.117188 139.664062 109.851562 141.148438 108.371094 142.039062 C 108.195312 142.125 107.988281 142.191406 107.9375 142.164062 C 107.898438 142.191406 107.894531 142.171875 107.871094 141.941406 C 107.871094 141.542969 107.964844 141.082031 108.0625 140.640625 C 108.269531 139.746094 108.539062 138.847656 108.816406 137.960938 C 109.382812 136.183594 109.988281 134.414062 110.636719 132.667969 C 111.859375 129.144531 113.777344 125.894531 114.8125 122.214844 C 116.851562 114.886719 116.136719 107.019531 113.707031 99.890625 C 112.46875 96.324219 110.632812 92.917969 108.226562 90 C 105.835938 87.082031 103.449219 84.226562 100.890625 81.445312 C 100.246094 80.753906 99.570312 80.085938 98.839844 79.457031 C 98.066406 78.894531 97.417969 78.078125 96.011719 78.117188 C 95.1875 78.277344 94.941406 79.0625 94.839844 79.523438 C 94.726562 80.042969 94.710938 80.535156 94.710938 81.023438 C 94.71875 81.996094 94.820312 82.933594 94.917969 83.875 C 95.09375 85.808594 95.800781 87.625 96.238281 89.410156 L 97.6875 94.796875 C 98.769531 98.363281 99.34375 102.113281 98.371094 105.613281 C 97.917969 107.367188 97.195312 109.082031 96.210938 110.566406 C 95.960938 110.917969 95.6875 111.273438 95.40625 111.519531 C 95.398438 111.523438 95.390625 111.53125 95.382812 111.535156 C 95.3125 110.746094 95.398438 109.769531 95.417969 108.855469 C 95.515625 105.0625 95.195312 101.269531 94.367188 97.550781 C 93.570312 93.832031 91.960938 90.199219 89.5625 87.195312 C 87.140625 84.210938 84.320312 81.648438 81.144531 79.5 C 78 77.3125 74.371094 75.941406 70.953125 74.507812 C 69.203125 73.8125 67.480469 73 65.394531 72.769531 C 64.371094 72.679688 63.105469 72.84375 62.183594 73.652344 C 61.167969 74.644531 61.105469 75.644531 60.765625 76.519531 L 57.472656 87.261719 C 56.921875 89.117188 56.492188 90.898438 56.023438 92.734375 L 55.355469 95.460938 C 55.152344 96.34375 54.847656 97.125 54.488281 98 C 52.851562 101.296875 51.898438 105.675781 53.355469 109.523438 C 54.050781 111.4375 55.316406 113.136719 56.855469 114.417969 C 58.347656 115.679688 60.136719 116.726562 62.023438 117.328125 C 65.804688 118.539062 69.835938 118.492188 73.554688 117.894531 C 74 117.835938 74.464844 117.78125 74.839844 117.777344 C 74.976562 117.765625 75.023438 117.78125 75.09375 117.792969 C 75.058594 117.90625 75.003906 118.039062 74.914062 118.164062 C 74.722656 118.484375 74.453125 118.820312 74.167969 119.136719 C 73.179688 120.332031 71.445312 120.671875 69.617188 121.167969 C 67.847656 121.632812 66.105469 121.941406 64.375 121.800781 C 62.652344 121.675781 60.941406 121.15625 59.394531 120.339844 C 56.328125 118.679688 53.757812 115.902344 51.863281 112.871094 C 51.355469 112.085938 50.980469 111.308594 50.292969 110.402344 C 50.109375 110.183594 49.882812 109.914062 49.449219 109.679688 C 49 109.433594 48.210938 109.429688 47.722656 109.917969 C 47.066406 110.675781 47.078125 111.09375 46.878906 111.609375 C 46.34375 113.53125 46.089844 115.386719 45.78125 117.242188 C 45.488281 119.089844 45.179688 120.96875 45.082031 122.914062 C 45.019531 124.890625 45.082031 126.707031 45.234375 128.664062 C 45.410156 130.59375 45.839844 132.574219 46.65625 134.386719 C 47.472656 136.167969 48.445312 137.875 49.777344 139.390625 C 51.09375 140.894531 52.78125 142.148438 54.707031 142.867188 C 56.632812 143.574219 58.703125 143.746094 60.679688 143.550781 C 64.597656 143.113281 68.378906 141.441406 71.390625 139.144531 C 74.175781 136.960938 77.925781 136.792969 80.988281 138.398438 C 81.347656 138.582031 81.484375 138.742188 81.417969 138.71875 C 81.453125 138.707031 81.402344 138.992188 81.199219 139.296875 C 80.820312 139.90625 80.175781 140.542969 79.511719 141.121094 C 78.191406 142.253906 76.703125 143.277344 75.1875 144.238281 C 72.597656 145.011719 69.988281 145.695312 67.429688 146.554688 C 64.765625 147.394531 62.339844 148.492188 59.800781 148.359375 C 57.210938 148.390625 54.789062 147.613281 52.828125 145.964844 C 50.84375 144.359375 49.242188 142.183594 47.695312 139.964844 L 45.359375 136.535156 C 45.121094 136.230469 44.945312 135.941406 44.472656 135.554688 C 44.328125 135.457031 44.191406 135.328125 43.8125 135.246094 C 43.453125 135.136719 42.84375 135.371094 42.636719 135.667969 C 42.230469 136.238281 42.308594 136.457031 42.25 136.714844 C 42.1875 137.625 42.300781 138.28125 42.378906 138.996094 Z M 65.257812 74.285156 C 66.917969 74.441406 68.667969 75.195312 70.378906 75.875 C 73.871094 77.308594 77.316406 78.582031 80.363281 80.664062 C 83.410156 82.675781 86.210938 85.195312 88.515625 88.007812 C 93.207031 93.714844 94.296875 101.507812 94.253906 108.816406 C 94.253906 109.761719 94.148438 110.640625 94.253906 111.714844 C 94.328125 111.929688 94.253906 112.460938 95.007812 112.757812 C 95.722656 112.828125 95.855469 112.519531 96.128906 112.371094 C 96.554688 111.992188 96.839844 111.589844 97.132812 111.183594 C 98.207031 109.539062 98.941406 107.746094 99.421875 105.878906 C 100.449219 102.09375 99.796875 98.105469 98.695312 94.574219 L 97.199219 89.125 C 96.730469 87.28125 96.054688 85.574219 95.882812 83.757812 C 95.777344 82.835938 95.675781 81.910156 95.664062 81.011719 C 95.625 80.1875 95.804688 79.027344 96.183594 79.035156 C 96.703125 78.972656 97.585938 79.605469 98.234375 80.160156 C 98.925781 80.746094 99.585938 81.398438 100.222656 82.070312 C 105.082031 87.664062 110.664062 93 112.957031 100.15625 C 115.371094 107.121094 116.113281 114.867188 114.152344 122.027344 C 113.183594 125.585938 111.269531 128.882812 110.054688 132.445312 C 109.398438 134.207031 108.769531 135.96875 108.191406 137.757812 C 107.90625 138.65625 107.628906 139.554688 107.410156 140.484375 C 107.304688 140.949219 107.199219 141.414062 107.191406 141.949219 C 107.164062 142.152344 107.277344 142.75 107.769531 142.824219 C 108.179688 142.902344 108.429688 142.753906 108.679688 142.652344 C 110.417969 141.609375 111.609375 140.15625 112.863281 138.742188 C 114.089844 137.300781 115.1875 135.757812 116.238281 134.203125 C 118.34375 131.085938 120.113281 127.628906 120.847656 123.867188 C 121.222656 122 121.367188 120.082031 121.269531 118.175781 C 121.164062 116.277344 120.910156 114.429688 120.792969 112.574219 C 120.667969 110.722656 120.65625 108.867188 120.730469 107.011719 C 120.859375 105.21875 120.789062 103.125 121.453125 101.742188 C 121.660156 101.453125 121.734375 101.453125 122.050781 101.566406 C 122.351562 101.703125 122.6875 102 122.992188 102.308594 C 123.601562 102.945312 124.160156 103.6875 124.695312 104.4375 C 125.75 105.953125 126.824219 107.507812 127.765625 109.101562 L 130.632812 113.871094 C 131.511719 115.515625 132.289062 117.203125 132.949219 118.917969 C 135.695312 125.765625 135.660156 133.585938 133.03125 140.4375 C 131.6875 143.839844 129.820312 147.09375 127.753906 150.152344 C 126.699219 151.703125 125.628906 153.140625 124.382812 154.554688 C 123.203125 156.003906 121.855469 157.542969 121.4375 159.691406 C 121.273438 160.773438 121.414062 161.875 121.921875 162.871094 C 122.183594 163.371094 122.59375 163.878906 123.195312 164.179688 C 123.800781 164.476562 124.472656 164.484375 125.023438 164.371094 C 127.214844 163.804688 128.601562 162.386719 130.023438 161.144531 C 132.9375 158.5 134.835938 155.046875 136.25 151.5 C 137.628906 147.910156 138.304688 144.234375 139.25 140.5625 C 139.695312 138.75 139.953125 136.820312 140.539062 135.234375 C 141.128906 133.769531 142.414062 132.136719 143.65625 131.464844 C 144.28125 131.222656 144.433594 131.292969 144.945312 132.011719 C 145.421875 132.757812 145.730469 133.457031 145.886719 134.285156 C 146.042969 135.054688 146.003906 136.046875 146.1875 137.054688 C 146.359375 138.085938 146.671875 138.953125 146.824219 139.816406 C 147.4375 143.375 147.574219 147.125 147.367188 150.785156 C 146.988281 158.09375 145 165.503906 140.425781 171.160156 C 139.289062 172.535156 137.875 173.785156 136.625 175.277344 C 135.359375 176.753906 134.320312 178.398438 133.378906 180.054688 C 132.453125 181.71875 131.597656 183.425781 130.921875 185.246094 C 130.597656 186.167969 130.285156 187.09375 130.15625 188.132812 C 130.097656 188.65625 130.082031 189.207031 130.175781 189.792969 C 130.304688 190.382812 130.625 191.0625 131.226562 191.480469 C 132.46875 192.210938 133.574219 192 134.625 191.773438 C 135.738281 191.480469 136.667969 190.667969 137.257812 189.851562 C 138.453125 188.183594 139.171875 186.480469 140.058594 184.828125 L 142.652344 179.867188 L 143.332031 178.609375 C 143.597656 178.039062 143.679688 177.660156 143.851562 177.183594 C 144.144531 176.265625 144.394531 175.332031 144.585938 174.386719 C 144.976562 172.492188 145.117188 170.644531 145.640625 168.941406 C 146.140625 167.242188 146.976562 165.554688 147.835938 163.964844 C 148.253906 163.21875 148.835938 162.367188 149.296875 162.121094 C 149.433594 162.078125 149.332031 162.074219 149.585938 162.328125 C 149.757812 162.621094 149.914062 163.015625 150.027344 163.433594 C 150.472656 165.125 150.601562 167.003906 150.710938 168.84375 C 150.867188 172.539062 150.84375 176.3125 150.785156 180.023438 C 150.71875 183.738281 150.253906 187.398438 148.40625 190.574219 C 146.65625 193.78125 144.238281 196.65625 141.335938 198.863281 C 138.425781 201.09375 134.96875 202.5 131.277344 202.589844 C 127.488281 202.753906 123.777344 203.542969 120.113281 204.4375 C 118.902344 204.742188 117.746094 205.285156 116.648438 205.929688 C 115.640625 203.199219 114.679688 200.4375 113.773438 197.652344 C 112.480469 193.78125 111.273438 189.898438 110.324219 185.941406 C 109.257812 182.039062 108.824219 177.878906 106.914062 174.140625 C 105.96875 172.300781 104.878906 170.558594 103.703125 168.867188 C 102.523438 167.175781 101.210938 165.605469 100.148438 163.921875 C 98.074219 160.546875 96.777344 156.640625 96.671875 152.703125 C 96.628906 148.6875 96.433594 144.457031 95.632812 140.410156 C 94.164062 132.222656 91.046875 124.503906 87.210938 117.214844 C 85.257812 113.589844 83.242188 110.042969 81.160156 106.539062 C 79.082031 103.019531 76.941406 99.570312 75.136719 95.957031 C 74.242188 94.144531 73.328125 92.335938 72.597656 90.476562 C 71.859375 88.625 71.292969 86.617188 70.351562 84.742188 C 68.523438 81.066406 65.929688 77.847656 62.933594 75.136719 C 63.011719 75 63.097656 74.886719 63.191406 74.816406 C 63.699219 74.359375 64.441406 74.230469 65.257812 74.285156 Z M 144.203125 168.761719 C 143.679688 170.5625 143.5 172.390625 143.136719 174.089844 C 142.949219 174.980469 142.714844 175.855469 142.433594 176.71875 C 142.285156 177.117188 142.125 177.648438 141.988281 177.929688 L 141.320312 179.140625 L 138.6875 184.117188 C 137.804688 185.753906 137.015625 187.515625 136.007812 188.886719 C 135.496094 189.566406 134.917969 190.039062 134.203125 190.222656 C 133.476562 190.417969 132.53125 190.425781 132.148438 190.136719 C 131.800781 189.929688 131.660156 189.179688 131.789062 188.34375 C 131.894531 187.519531 132.179688 186.660156 132.484375 185.820312 C 133.117188 184.132812 133.953125 182.484375 134.859375 180.882812 C 135.777344 179.292969 136.757812 177.761719 137.945312 176.398438 C 139.097656 175.027344 140.519531 173.792969 141.78125 172.292969 C 142.691406 171.179688 143.476562 169.984375 144.203125 168.761719 Z M 46.019531 141.105469 C 47.605469 143.359375 49.269531 145.667969 51.554688 147.523438 C 53.796875 149.4375 56.90625 150.421875 59.789062 150.351562 C 61.207031 150.398438 62.777344 150.15625 64.117188 149.734375 C 65.480469 149.324219 66.757812 148.867188 68.054688 148.441406 C 70.628906 147.574219 73.261719 146.886719 75.863281 146.101562 L 76.03125 146.046875 L 76.140625 145.980469 C 77.746094 144.960938 79.324219 143.886719 80.8125 142.605469 C 81.546875 141.949219 82.277344 141.28125 82.894531 140.304688 C 83.171875 139.832031 83.542969 139.179688 83.339844 138.230469 C 83.109375 137.25 82.324219 136.855469 81.886719 136.621094 C 80.109375 135.726562 77.980469 135.191406 75.941406 135.363281 C 73.890625 135.453125 71.816406 136.363281 70.273438 137.507812 C 67.339844 139.746094 64.007812 141.160156 60.476562 141.589844 C 58.734375 141.761719 56.980469 141.609375 55.386719 141.027344 C 53.792969 140.433594 52.382812 139.398438 51.234375 138.089844 C 46.339844 132.675781 46.421875 124.683594 47.675781 117.527344 C 47.976562 115.683594 48.242188 113.824219 48.710938 112.140625 C 48.746094 111.996094 48.804688 111.835938 48.859375 111.691406 C 49.296875 112.273438 49.75 113.117188 50.234375 113.871094 C 51.238281 115.5 52.460938 117.089844 53.835938 118.4375 C 55.175781 119.8125 56.734375 121.09375 58.507812 122.011719 C 60.277344 122.9375 62.21875 123.53125 64.234375 123.675781 C 66.253906 123.839844 68.25 123.472656 70.09375 122.984375 C 71.027344 122.722656 71.882812 122.527344 72.882812 122.164062 C 73.859375 121.804688 74.839844 121.207031 75.570312 120.375 C 75.90625 120 76.234375 119.597656 76.523438 119.117188 C 76.761719 118.628906 77.222656 118.085938 76.917969 116.984375 C 76.730469 116.441406 76.144531 116.042969 75.78125 115.988281 C 75.375 115.867188 75.09375 115.886719 74.8125 115.882812 C 74.253906 115.894531 73.785156 115.964844 73.308594 116.019531 C 69.65625 116.617188 65.996094 116.609375 62.601562 115.542969 C 59.324219 114.441406 56.246094 112.0625 55.058594 108.867188 C 54.441406 107.265625 54.3125 105.53125 54.527344 103.757812 C 54.65625 101.972656 55.359375 100.445312 56.101562 98.640625 C 56.445312 97.78125 56.808594 96.808594 57.019531 95.863281 L 57.667969 93.125 C 58.113281 91.332031 58.554688 89.46875 59.054688 87.730469 L 62.269531 76.96875 C 62.449219 76.398438 62.628906 75.796875 62.839844 75.347656 C 65.609375 78.226562 67.839844 81.582031 69.414062 85.179688 C 70.222656 87 70.671875 88.964844 71.339844 90.941406 C 72.007812 92.914062 72.824219 94.804688 73.695312 96.667969 C 77.265625 104.109375 81.566406 111.023438 85.339844 118.207031 C 88.964844 125.386719 92.179688 132.90625 93.738281 140.777344 C 94.554688 144.738281 94.894531 148.675781 95.101562 152.804688 C 95.382812 157.019531 96.898438 161.082031 99.21875 164.554688 C 101.675781 167.921875 104.46875 170.828125 106.28125 174.472656 C 108.179688 178.03125 108.703125 182.144531 109.636719 186.113281 C 111.339844 193.074219 113.109375 199.992188 115.316406 206.832031 C 115.207031 206.921875 115.074219 206.972656 114.96875 207.066406 C 113.453125 208.347656 112.46875 210.039062 111.386719 211.503906 C 109.234375 214.496094 106.136719 216.660156 102.664062 217.953125 C 99.191406 219.320312 95.730469 220.8125 92.03125 221.191406 C 88.339844 221.628906 84.613281 220.886719 81.207031 219.351562 C 79.546875 218.617188 77.605469 217.984375 76.585938 216.511719 C 76.085938 215.707031 76.832031 214.851562 77.566406 214.382812 C 78.335938 213.871094 79.179688 213.515625 80.089844 213.199219 C 84.355469 209.75 88.882812 206.601562 92.523438 202.414062 C 93.394531 201.332031 94.136719 200.179688 94.839844 198.984375 C 95.492188 197.789062 96.207031 196.457031 95.949219 194.917969 C 95.582031 193.332031 93.921875 192.554688 92.476562 192.605469 C 90.835938 192.683594 89.859375 194.066406 89.039062 195.078125 C 85.730469 199.320312 81.964844 203.699219 76.65625 204.917969 C 74.097656 205.535156 71.324219 205.261719 69.058594 203.933594 C 67.914062 203.277344 66.886719 202.421875 65.847656 201.535156 C 64.8125 200.675781 63.957031 199.699219 63.160156 198.601562 C 61.574219 196.414062 60.09375 194.101562 58.585938 191.820312 C 57.097656 189.53125 55.601562 187.246094 54.476562 184.820312 C 53.914062 183.609375 53.457031 182.351562 53.238281 181.078125 C 53.109375 180.4375 53.089844 179.796875 53.09375 179.164062 C 53.074219 178.558594 53.328125 177.855469 53.417969 177.9375 C 53.457031 177.835938 54.179688 178.238281 54.632812 178.636719 L 56.183594 179.957031 C 57.238281 180.867188 58.324219 181.703125 59.429688 182.542969 C 60.539062 183.371094 61.726562 184.191406 63.132812 184.695312 C 64.527344 185.214844 66.15625 185.265625 67.5625 184.882812 C 70.371094 184.070312 72.738281 182.867188 75.273438 181.632812 C 77.742188 180.335938 80.074219 178.761719 82.1875 176.933594 C 84.296875 175.179688 86.359375 173.121094 87.789062 170.648438 C 88.507812 169.421875 89.125 168.171875 89.636719 166.832031 C 89.886719 166.15625 90.113281 165.472656 90.226562 164.6875 C 90.285156 164.296875 90.300781 163.859375 90.195312 163.355469 C 90.105469 162.824219 89.5 162.15625 88.902344 162.078125 C 87.796875 161.914062 87.109375 162.273438 86.410156 162.550781 C 85.730469 162.863281 85.097656 163.226562 84.5 163.640625 C 83.3125 164.429688 82.160156 165.539062 81.429688 166.828125 C 80.117188 169.332031 78.777344 171.472656 76.859375 173.347656 C 75.007812 175.175781 72.730469 176.804688 70.582031 178.378906 C 68.457031 179.957031 66.035156 180.632812 63.503906 180.226562 C 62.261719 180.039062 61.042969 179.632812 59.910156 179.050781 C 59.339844 178.757812 58.792969 178.433594 58.269531 178.0625 C 57.777344 177.726562 57.382812 177.324219 56.980469 176.832031 C 53.925781 172.675781 51.980469 167.359375 49.859375 162.410156 C 48.835938 159.902344 47.941406 157.363281 47.222656 154.761719 L 46.710938 152.804688 L 46.589844 152.316406 L 46.515625 151.882812 L 46.355469 150.871094 L 45.691406 146.8125 L 44.402344 138.738281 Z M 59.492188 180.9375 C 60.671875 181.484375 61.921875 181.894531 63.230469 182.082031 C 64.703125 182.277344 66.214844 182.230469 67.675781 181.832031 C 69.148438 181.441406 70.460938 180.671875 71.609375 179.863281 C 73.863281 178.1875 76.058594 176.609375 78.097656 174.578125 C 80.113281 172.609375 81.683594 170.035156 82.878906 167.679688 C 83.5 166.578125 84.359375 165.734375 85.4375 164.992188 C 86.417969 164.292969 87.84375 163.570312 88.546875 163.65625 C 88.632812 163.703125 88.546875 163.613281 88.625 163.753906 C 88.652344 163.921875 88.671875 164.175781 88.625 164.460938 C 88.546875 165.03125 88.359375 165.65625 88.132812 166.265625 C 87.679688 167.480469 87.089844 168.707031 86.433594 169.84375 C 85.125 172.136719 83.273438 174.03125 81.199219 175.789062 C 79.179688 177.558594 76.957031 179.082031 74.589844 180.351562 C 72.226562 181.535156 69.671875 182.824219 67.21875 183.539062 C 64.734375 184.300781 62.316406 183.121094 60.195312 181.480469 C 59.957031 181.308594 59.730469 181.113281 59.492188 180.9375 Z M 59.492188 180.9375 " fill-opacity="1" fill-rule="nonzero"/></g><path fill="#ffffff" d="M 96.617188 214.121094 C 97.421875 214.644531 98.339844 214.269531 99.132812 214.101562 C 99.921875 213.882812 100.792969 213.667969 101.574219 213.230469 C 103.152344 212.425781 104.371094 211.234375 105.410156 209.9375 C 106.417969 208.601562 107.351562 207.210938 108.125 205.664062 C 108.480469 204.847656 108.710938 204.082031 108.921875 203.238281 C 109.007812 202.8125 109.085938 202.375 109.0625 201.886719 C 109.035156 201.417969 108.816406 200.789062 108.265625 200.449219 C 107.164062 199.871094 106.183594 200.136719 105.332031 200.332031 C 104.464844 200.566406 103.675781 200.921875 102.910156 201.304688 C 101.332031 202.101562 99.902344 203.203125 98.78125 204.550781 C 97.664062 205.90625 96.789062 207.410156 96.34375 209.121094 C 96.125 209.960938 95.996094 210.828125 95.957031 211.6875 C 95.960938 212.511719 95.886719 213.496094 96.617188 214.121094 Z M 96.507812 211.78125 C 96.742188 211.019531 97.164062 210.324219 97.585938 209.664062 C 98.519531 208.40625 99.414062 207.109375 100.441406 205.988281 C 101.460938 204.855469 102.566406 203.804688 103.859375 203 C 104.527344 202.589844 105.210938 202.207031 105.882812 201.894531 C 106.542969 201.585938 107.292969 201.316406 107.726562 201.445312 C 108.128906 201.511719 108.363281 202.359375 108.230469 203.117188 C 108.132812 203.875 107.882812 204.699219 107.53125 205.355469 C 106.710938 206.683594 105.335938 207.683594 104.15625 208.769531 C 102.960938 209.863281 101.886719 211.035156 100.820312 212.179688 C 100.285156 212.738281 99.652344 213.199219 98.933594 213.609375 C 98.261719 213.988281 97.394531 214.375 96.742188 213.957031 C 96.167969 213.4375 96.285156 212.496094 96.507812 211.78125 Z M 96.507812 211.78125 " fill-opacity="1" fill-rule="nonzero"/><path fill="#ffffff" d="M 110.007812 170.808594 C 110.449219 171.507812 110.90625 172.386719 111.851562 172.53125 C 112.8125 172.558594 113.394531 171.75 113.984375 171.195312 C 114.539062 170.59375 115.171875 169.957031 115.605469 169.171875 C 116.519531 167.660156 116.9375 166.003906 117.140625 164.355469 C 117.292969 162.6875 117.359375 161.015625 117.203125 159.289062 C 117.078125 158.410156 116.875 157.640625 116.605469 156.804688 C 116.460938 156.398438 116.289062 155.988281 116.015625 155.582031 C 115.75 155.195312 115.230469 154.777344 114.585938 154.78125 C 113.34375 154.863281 112.648438 155.609375 112.027344 156.21875 C 111.410156 156.875 110.925781 157.59375 110.480469 158.324219 C 109.554688 159.824219 108.914062 161.515625 108.667969 163.25 C 108.433594 164.992188 108.476562 166.734375 108.996094 168.421875 C 109.246094 169.253906 109.59375 170.054688 110.007812 170.808594 Z M 110.335938 168.234375 C 110.464844 166.667969 110.546875 165.101562 110.832031 163.601562 C 111.101562 162.105469 111.492188 160.628906 112.167969 159.269531 C 112.523438 158.566406 112.902344 157.886719 113.3125 157.261719 C 113.714844 156.65625 114.207031 156.03125 114.648438 155.910156 C 115.023438 155.761719 115.671875 156.355469 115.953125 157.074219 C 116.273438 157.769531 116.488281 158.601562 116.535156 159.347656 C 116.535156 160.902344 115.894531 162.472656 115.457031 164.023438 C 115.011719 165.582031 114.714844 167.144531 114.410156 168.675781 C 114.246094 169.429688 113.949219 170.15625 113.554688 170.886719 C 113.183594 171.5625 112.648438 172.34375 111.875 172.332031 C 111.113281 172.191406 110.722656 171.332031 110.53125 170.601562 C 110.328125 169.828125 110.324219 169.015625 110.335938 168.234375 Z M 110.335938 168.234375 " fill-opacity="1" fill-rule="nonzero"/><g clip-path="url(#662dc673f6)"><path fill="#ffffff" d="M 188.777344 160.3125 C 189.191406 164.167969 189.78125 167.921875 190.414062 171.726562 C 191.039062 175.488281 192.167969 179.476562 194.664062 182.578125 C 197.035156 185.695312 200.027344 188.332031 203.464844 190.210938 C 206.867188 192.113281 210.953125 193.078125 214.839844 192.578125 C 219.753906 192.355469 225.285156 191.992188 229.808594 193.785156 C 229.632812 194.558594 229.492188 195.355469 229.296875 196.128906 C 227.425781 204.164062 224.371094 211.878906 220.398438 219.144531 C 216.441406 226.441406 212.007812 233.46875 206.980469 240.121094 L 207.140625 240.257812 C 212.773438 234.085938 217.589844 227.160156 221.8125 219.929688 C 225.992188 212.664062 229.328125 204.785156 231.011719 196.511719 C 231.140625 195.824219 231.238281 195.132812 231.363281 194.441406 C 232.953125 195.316406 234.378906 196.535156 235.546875 198.230469 C 238.308594 201.019531 242.011719 202.792969 245.792969 203.550781 C 249.515625 204.363281 253.316406 205.328125 257.210938 205.109375 C 261.101562 204.957031 264.871094 203.542969 268.070312 201.4375 C 269.644531 200.390625 271.507812 199.507812 272.414062 197.648438 C 272.609375 197.167969 272.496094 196.554688 272.148438 196.171875 C 271.816406 195.777344 271.375 195.523438 270.9375 195.3125 C 270.058594 194.910156 269.09375 194.675781 268.179688 194.519531 C 263.441406 191.605469 258.417969 188.984375 254.257812 185.292969 C 253.265625 184.34375 252.359375 183.265625 251.515625 182.175781 C 250.703125 181.09375 249.898438 179.851562 249.960938 178.582031 C 250.046875 177.335938 251.386719 176.429688 252.617188 176.324219 C 253.902344 176.191406 254.933594 177.242188 255.914062 178.1875 C 257.871094 180.191406 260.03125 182.042969 262.320312 183.695312 C 264.652344 185.363281 267.40625 186.425781 270.277344 186.761719 C 273.148438 187.078125 276.214844 186.34375 278.527344 184.523438 C 279.6875 183.632812 280.652344 182.5625 281.585938 181.515625 C 282.550781 180.472656 283.378906 179.222656 284.042969 177.984375 C 285.382812 175.484375 286.546875 172.949219 287.765625 170.421875 C 288.964844 167.894531 290.175781 165.34375 291.019531 162.601562 C 291.441406 161.230469 291.753906 159.804688 291.808594 158.332031 C 291.855469 157.59375 291.785156 156.847656 291.675781 156.105469 C 291.609375 155.738281 291.527344 155.355469 291.355469 154.953125 C 291.1875 154.582031 290.867188 154.023438 290.167969 153.886719 C 289.46875 153.777344 289.019531 154.128906 288.703125 154.351562 C 288.539062 154.476562 288.421875 154.613281 288.285156 154.742188 C 289.523438 152.386719 290.292969 149.972656 291.058594 147.550781 C 291.875 144.835938 292.621094 142.152344 293.304688 139.40625 C 293.984375 136.660156 294.53125 133.863281 294.890625 131.042969 L 295.121094 128.933594 L 295.175781 128.398438 L 295.191406 127.796875 L 295.207031 126.75 L 295.273438 122.554688 L 295.390625 114.128906 C 295.363281 113.390625 295.386719 112.710938 295.191406 111.800781 C 295.097656 111.550781 295.140625 111.3125 294.644531 110.800781 C 294.394531 110.527344 293.742188 110.382812 293.398438 110.542969 C 293.023438 110.679688 292.902344 110.832031 292.769531 110.953125 C 292.351562 111.410156 292.210938 111.734375 292.023438 112.074219 L 290.164062 115.863281 C 288.925781 118.335938 287.625 120.765625 285.855469 122.683594 C 284.113281 124.640625 281.773438 125.773438 279.148438 126.125 C 276.597656 126.632812 273.988281 125.875 271.164062 125.417969 C 268.453125 124.925781 265.710938 124.613281 262.980469 124.210938 C 261.300781 123.457031 259.648438 122.644531 258.148438 121.6875 C 257.394531 121.203125 256.648438 120.652344 256.175781 120.09375 C 255.921875 119.820312 255.832031 119.53125 255.863281 119.539062 C 255.800781 119.570312 255.917969 119.386719 256.253906 119.152344 C 259.121094 117.078125 262.933594 116.703125 266.070312 118.503906 C 269.453125 120.382812 273.523438 121.519531 277.550781 121.390625 C 279.582031 121.300781 281.652344 120.824219 283.496094 119.828125 C 285.335938 118.820312 286.863281 117.300781 287.96875 115.585938 C 289.097656 113.863281 289.835938 111.996094 290.398438 110.070312 C 290.960938 108.113281 291.101562 106.050781 290.996094 104.070312 C 290.863281 102.074219 290.664062 100.222656 290.3125 98.230469 C 289.929688 96.277344 289.34375 94.421875 288.773438 92.589844 C 288.191406 90.765625 287.660156 88.921875 286.839844 87.054688 C 286.558594 86.566406 286.511719 86.140625 285.742188 85.46875 C 285.171875 85.046875 284.375 85.164062 283.957031 85.480469 C 283.550781 85.78125 283.363281 86.082031 283.210938 86.335938 C 282.644531 87.351562 282.382812 88.191406 281.984375 89.0625 C 280.507812 92.40625 278.316406 95.589844 275.453125 97.722656 C 274.011719 98.769531 272.355469 99.550781 270.625 99.921875 C 268.902344 100.320312 267.09375 100.265625 265.230469 100.054688 C 263.308594 99.820312 261.503906 99.726562 260.332031 98.664062 C 259.996094 98.382812 259.675781 98.085938 259.433594 97.789062 C 259.320312 97.671875 259.242188 97.53125 259.191406 97.429688 C 259.257812 97.410156 259.347656 97.390625 259.457031 97.382812 C 259.832031 97.332031 260.3125 97.324219 260.777344 97.316406 C 264.625 97.378906 268.714844 96.835938 272.355469 95.0625 C 274.183594 94.175781 275.839844 92.851562 277.164062 91.359375 C 278.523438 89.835938 279.5625 87.9375 279.988281 85.894531 C 280.894531 81.792969 279.292969 77.5 277.15625 74.40625 C 276.664062 73.578125 276.238281 72.824219 275.90625 71.960938 L 274.832031 69.300781 C 274.085938 67.515625 273.390625 65.777344 272.5625 63.980469 L 267.660156 53.597656 C 267.1875 52.761719 266.976562 51.753906 265.808594 50.902344 C 264.75 50.21875 263.453125 50.234375 262.429688 50.480469 C 260.355469 51.019531 258.730469 52.089844 257.058594 53.054688 C 253.8125 55 250.347656 56.917969 247.480469 59.59375 C 244.582031 62.222656 242.097656 65.238281 240.085938 68.613281 C 238.097656 71.996094 237.003906 75.90625 236.738281 79.785156 C 236.445312 83.671875 236.679688 87.550781 237.328125 91.378906 C 237.480469 92.300781 237.714844 93.277344 237.753906 94.085938 C 237.746094 94.082031 237.738281 94.078125 237.734375 94.070312 C 237.410156 93.871094 237.082031 93.542969 236.777344 93.222656 C 235.566406 91.875 234.582031 90.234375 233.875 88.535156 C 232.367188 85.132812 232.402344 81.257812 232.980469 77.492188 L 233.65625 71.828125 C 233.839844 69.960938 234.289062 68.019531 234.183594 66.035156 C 234.140625 65.070312 234.113281 64.101562 233.980469 63.121094 C 233.910156 62.625 233.820312 62.128906 233.632812 61.621094 C 233.460938 61.171875 233.09375 60.414062 232.234375 60.371094 C 230.8125 60.539062 230.269531 61.464844 229.574219 62.140625 C 228.925781 62.886719 228.34375 63.664062 227.789062 64.453125 C 225.613281 67.644531 223.613281 70.882812 221.617188 74.183594 C 219.609375 77.488281 218.253906 81.207031 217.515625 84.992188 C 216.101562 92.5625 216.53125 100.621094 219.664062 107.738281 C 221.253906 111.3125 223.671875 114.3125 225.417969 117.699219 C 226.332031 119.378906 227.203125 121.074219 228.03125 122.789062 C 228.445312 123.648438 228.847656 124.515625 229.183594 125.390625 C 229.351562 125.824219 229.511719 126.277344 229.570312 126.679688 C 229.582031 126.917969 229.578125 126.9375 229.535156 126.917969 C 229.488281 126.953125 229.269531 126.914062 229.082031 126.851562 C 227.449219 126.164062 225.957031 124.851562 224.546875 123.621094 C 223.132812 122.359375 221.828125 120.976562 220.5625 119.554688 C 218.03125 116.738281 215.832031 113.578125 214.613281 110.011719 C 213.261719 106.464844 213.363281 102.65625 213.136719 98.796875 C 213.003906 96.871094 212.753906 94.953125 212.414062 93.054688 C 212.242188 92.101562 212.0625 91.164062 211.84375 90.214844 C 211.59375 89.265625 211.4375 88.300781 210.71875 87.34375 C 210.523438 87.113281 210.222656 86.867188 209.820312 86.800781 C 209.425781 86.753906 209.039062 86.867188 208.800781 87.035156 C 208.269531 87.371094 207.960938 87.789062 207.648438 88.191406 C 207.058594 89.011719 206.589844 89.863281 206.136719 90.722656 C 205.261719 92.449219 204.398438 94.144531 203.652344 95.925781 L 201.371094 101.253906 C 200.714844 103.054688 200.144531 104.910156 199.699219 106.800781 C 197.8125 114.375 198.972656 122.644531 202.75 129.480469 C 204.675781 132.890625 207.054688 135.945312 209.636719 138.832031 C 210.917969 140.253906 212.324219 141.671875 213.769531 142.917969 C 215.15625 144.175781 216.546875 145.5 217.0625 147.0625 C 217.292969 147.820312 217.296875 148.691406 217.035156 149.421875 C 216.765625 150.152344 216.332031 150.449219 215.570312 150.398438 C 214.019531 150.25 212.351562 149.140625 210.832031 148.101562 C 207.789062 146.035156 205.480469 142.960938 203.644531 139.734375 C 201.832031 136.460938 200.609375 132.792969 199.175781 129.296875 C 198.464844 127.523438 197.992188 125.710938 197.007812 123.847656 C 196.496094 122.914062 195.785156 122.109375 195.050781 121.421875 C 194.289062 120.734375 193.5 120.058594 192.332031 119.664062 C 191.761719 119.480469 190.945312 119.4375 190.25 119.839844 C 189.570312 120.25 189.257812 120.84375 189.023438 121.324219 C 188.597656 122.238281 188.261719 123.355469 188.234375 124.417969 C 188.175781 125.527344 188.359375 126.429688 188.308594 127.300781 C 188.296875 128.144531 188.101562 129.113281 188.050781 130.132812 C 187.925781 134.097656 188.332031 137.945312 189.074219 141.777344 C 189.804688 145.695312 191.054688 149.605469 192.894531 153.210938 C 192.4375 152.675781 191.921875 152.15625 191.015625 151.785156 C 190.667969 151.675781 190.105469 151.660156 189.75 151.964844 C 189.3125 152.214844 189.226562 152.539062 189.050781 152.824219 C 188.816406 153.382812 188.726562 153.90625 188.664062 154.414062 C 188.429688 156.457031 188.601562 158.382812 188.777344 160.3125 Z M 266.199219 54.289062 L 271.023438 64.703125 C 271.785156 66.390625 272.496094 68.207031 273.214844 69.964844 L 274.273438 72.628906 C 274.621094 73.5625 275.132812 74.488281 275.613281 75.308594 C 276.625 77.023438 277.558594 78.464844 277.949219 80.253906 C 278.429688 82.015625 278.550781 83.789062 278.164062 85.5 C 277.417969 88.90625 274.660156 91.765625 271.503906 93.359375 C 268.222656 94.933594 264.527344 95.476562 260.742188 95.40625 C 260.246094 95.417969 259.761719 95.414062 259.199219 95.488281 C 258.910156 95.53125 258.625 95.550781 258.230469 95.734375 C 257.871094 95.851562 257.335938 96.332031 257.226562 96.910156 C 257.085938 98.070312 257.628906 98.554688 257.9375 99.015625 C 258.300781 99.453125 258.691406 99.808594 259.089844 100.144531 C 259.945312 100.875 261.03125 101.339844 262.066406 101.558594 C 263.128906 101.773438 264.03125 101.855469 265.007812 101.984375 C 266.941406 102.203125 269.019531 102.28125 271.035156 101.824219 C 273.050781 101.378906 274.929688 100.496094 276.585938 99.300781 C 278.242188 98.113281 279.628906 96.585938 280.789062 94.996094 C 281.976562 93.433594 282.988281 91.652344 283.761719 89.851562 C 284.140625 89.023438 284.480469 88.101562 284.839844 87.445312 C 284.914062 87.585938 284.996094 87.738281 285.050781 87.878906 C 285.769531 89.519531 286.316406 91.367188 286.890625 93.183594 C 289.207031 100.238281 290.457031 108.300781 286.304688 114.503906 C 285.332031 115.992188 284.054688 117.246094 282.53125 118.078125 C 281.003906 118.90625 279.257812 119.3125 277.464844 119.394531 C 273.832031 119.476562 270.253906 118.539062 266.957031 116.699219 C 265.226562 115.769531 262.992188 115.148438 260.910156 115.359375 C 258.824219 115.484375 256.746094 116.335938 255.078125 117.503906 C 254.671875 117.808594 253.933594 118.316406 253.847656 119.347656 C 253.777344 120.328125 254.25 120.933594 254.59375 121.375 C 255.363281 122.277344 256.199219 122.84375 257.042969 123.402344 C 258.734375 124.480469 260.488281 125.332031 262.261719 126.132812 L 262.386719 126.1875 L 262.558594 126.21875 C 265.304688 126.636719 268.070312 126.9375 270.800781 127.441406 C 272.175781 127.683594 273.535156 127.960938 274.96875 128.171875 C 276.390625 128.398438 278.015625 128.414062 279.449219 128.164062 C 282.375 127.8125 285.375 126.359375 287.359375 124.097656 C 289.398438 121.886719 290.746094 119.3125 292.015625 116.792969 L 293.308594 114.164062 L 293.183594 122.523438 L 293.117188 126.722656 L 293.09375 127.765625 L 293.078125 128.210938 L 293.027344 128.726562 L 292.792969 130.78125 C 292.449219 133.515625 291.917969 136.214844 291.25 138.902344 C 289.828125 144.222656 288.636719 149.886719 286.152344 154.535156 C 285.820312 155.089844 285.476562 155.554688 285.027344 155.96875 C 284.558594 156.417969 284.050781 156.835938 283.515625 157.207031 C 282.453125 157.964844 281.28125 158.550781 280.050781 158.925781 C 277.550781 159.707031 275 159.375 272.617188 158.089844 C 270.214844 156.820312 267.671875 155.5 265.535156 153.921875 C 263.320312 152.308594 261.652344 150.335938 259.953125 148 C 259.027344 146.792969 257.703125 145.839844 256.386719 145.21875 C 255.71875 144.886719 255.03125 144.613281 254.292969 144.390625 C 253.539062 144.214844 252.796875 143.953125 251.699219 144.28125 C 251.109375 144.449219 250.59375 145.214844 250.578125 145.757812 C 250.542969 146.285156 250.628906 146.722656 250.742188 147.109375 C 250.972656 147.890625 251.304688 148.550781 251.65625 149.195312 C 252.371094 150.476562 253.175781 151.652344 254.085938 152.785156 C 255.890625 155.078125 258.28125 156.855469 260.667969 158.328125 C 263.074219 159.863281 265.660156 161.109375 268.351562 162.066406 C 271.097656 162.945312 273.667969 163.816406 276.628906 164.226562 C 278.109375 164.40625 279.753906 164.117188 281.082031 163.394531 C 282.425781 162.679688 283.515625 161.671875 284.519531 160.671875 C 285.511719 159.664062 286.488281 158.65625 287.425781 157.578125 L 288.792969 156.019531 C 289.195312 155.546875 289.867188 155.039062 289.925781 155.136719 C 290.003906 155.042969 290.363281 155.710938 290.425781 156.328125 C 290.523438 156.972656 290.59375 157.621094 290.558594 158.289062 C 290.523438 159.613281 290.242188 160.945312 289.859375 162.253906 C 289.074219 164.871094 287.894531 167.40625 286.726562 169.9375 C 285.53125 172.460938 284.378906 175.027344 283.089844 177.472656 C 282.441406 178.695312 281.722656 179.808594 280.796875 180.828125 C 279.878906 181.882812 278.964844 182.902344 277.902344 183.722656 C 275.804688 185.402344 273.042969 186.082031 270.359375 185.832031 C 264.816406 185.378906 260.359375 181.5 256.394531 177.691406 C 255.417969 176.789062 254.230469 175.53125 252.554688 175.695312 C 251.085938 175.855469 249.523438 176.886719 249.378906 178.546875 C 249.34375 180.136719 250.261719 181.378906 251.101562 182.492188 C 251.988281 183.597656 252.90625 184.65625 253.949219 185.625 C 258.238281 189.328125 263.285156 191.851562 268.105469 194.722656 C 269.070312 194.90625 269.972656 195.140625 270.828125 195.546875 C 271.644531 195.914062 272.523438 196.671875 272.136719 197.558594 C 271.316406 199.191406 269.445312 200.117188 267.871094 201.105469 C 264.648438 203.160156 260.988281 204.453125 257.191406 204.546875 C 253.398438 204.707031 249.675781 203.707031 245.964844 202.828125 C 242.257812 202.027344 238.808594 200.289062 236.199219 197.582031 C 234.886719 196.253906 233.640625 194.6875 231.925781 193.609375 C 231.800781 193.535156 231.660156 193.5 231.539062 193.425781 C 232.769531 186.183594 233.546875 178.925781 234.25 171.628906 C 234.617188 167.480469 234.546875 163.246094 235.949219 159.367188 C 237.242188 155.414062 239.648438 152.0625 241.644531 148.292969 C 243.480469 144.445312 244.414062 140.117188 244.089844 135.808594 C 243.691406 131.605469 243.460938 127.574219 243.707031 123.445312 C 244.132812 115.246094 246.285156 107.175781 248.902344 99.382812 C 251.667969 91.5625 255.007812 83.941406 257.527344 75.882812 C 258.136719 73.875 258.6875 71.84375 259.074219 69.746094 C 259.460938 67.652344 259.632812 65.597656 260.175781 63.636719 C 261.25 59.765625 263.011719 56.042969 265.394531 52.730469 C 265.664062 53.152344 265.933594 53.742188 266.199219 54.289062 Z M 284.203125 159.0625 C 283.992188 159.28125 283.789062 159.507812 283.578125 159.726562 C 281.667969 161.699219 279.394531 163.246094 276.769531 162.839844 C 274.183594 162.46875 271.40625 161.539062 268.84375 160.691406 C 266.261719 159.753906 263.792969 158.53125 261.492188 157.042969 C 259.136719 155.566406 256.984375 153.921875 255.324219 151.789062 C 254.496094 150.734375 253.722656 149.589844 253.082031 148.417969 C 252.765625 147.835938 252.484375 147.230469 252.324219 146.667969 C 252.234375 146.378906 252.21875 146.117188 252.21875 145.949219 C 252.28125 145.792969 252.203125 145.894531 252.289062 145.835938 C 252.984375 145.644531 254.535156 146.171875 255.625 146.738281 C 256.828125 147.328125 257.816406 148.058594 258.609375 149.085938 C 260.164062 151.285156 262.128906 153.664062 264.457031 155.359375 C 266.816406 157.117188 269.273438 158.394531 271.792969 159.757812 C 273.074219 160.40625 274.511719 160.992188 276.058594 161.171875 C 277.59375 161.363281 279.132812 161.191406 280.59375 160.777344 C 281.890625 160.390625 283.089844 159.789062 284.203125 159.0625 Z M 190.050781 154.605469 C 190.101562 154.160156 190.203125 153.746094 190.332031 153.417969 C 190.554688 153.125 190.453125 153.148438 190.597656 153.167969 C 191.089844 153.347656 191.804688 154.125 192.339844 154.820312 C 193.441406 156.300781 194.535156 157.886719 195.28125 159.53125 C 196.066406 161.179688 196.476562 163.03125 197.148438 164.890625 C 197.480469 165.816406 197.871094 166.726562 198.296875 167.609375 C 198.546875 168.070312 198.683594 168.441406 199.035156 168.972656 L 199.90625 170.148438 L 203.257812 174.792969 C 204.390625 176.332031 205.371094 177.953125 206.824219 179.457031 C 207.542969 180.199219 208.597656 180.886719 209.773438 181.023438 C 210.863281 181.09375 212.015625 181.148438 213.164062 180.226562 C 213.714844 179.714844 213.941406 178.984375 213.980469 178.371094 C 213.996094 177.761719 213.898438 177.203125 213.761719 176.679688 C 213.476562 175.652344 213.027344 174.753906 212.5625 173.875 C 211.609375 172.128906 210.496094 170.53125 209.3125 168.980469 C 208.121094 167.445312 206.832031 165.933594 205.335938 164.625 C 203.847656 163.296875 202.238281 162.242188 200.886719 161.011719 C 195.429688 155.960938 192.335938 148.753906 190.886719 141.417969 C 190.140625 137.742188 189.734375 133.929688 189.828125 130.238281 C 189.863281 129.34375 190.046875 128.425781 190.074219 127.355469 C 190.109375 126.308594 189.925781 125.304688 189.976562 124.507812 C 190.007812 123.644531 190.214844 122.898438 190.59375 122.066406 C 191 121.269531 191.148438 121.171875 191.8125 121.324219 C 193.167969 121.828125 194.703125 123.292969 195.519531 124.6875 C 196.347656 126.203125 196.886719 128.117188 197.601562 129.890625 C 199.097656 133.460938 200.320312 137.089844 202.238281 140.519531 C 204.191406 143.898438 206.617188 147.117188 209.949219 149.367188 C 211.566406 150.410156 213.175781 151.644531 215.480469 151.894531 C 216.054688 151.933594 216.734375 151.824219 217.308594 151.433594 C 217.871094 151.042969 218.214844 150.472656 218.402344 149.929688 C 218.769531 148.84375 218.746094 147.707031 218.425781 146.636719 C 217.691406 144.527344 216.097656 143.160156 214.695312 141.875 C 213.230469 140.621094 211.929688 139.324219 210.636719 137.917969 C 208.105469 135.121094 205.734375 132.105469 203.878906 128.855469 C 200.21875 122.308594 199.039062 114.402344 200.816406 107.074219 C 201.234375 105.234375 201.773438 103.421875 202.421875 101.625 L 204.625 96.382812 C 205.339844 94.632812 206.207031 92.902344 207.050781 91.214844 C 207.484375 90.378906 207.9375 89.546875 208.457031 88.808594 C 208.722656 88.457031 209.019531 88.105469 209.300781 87.921875 C 209.609375 87.765625 209.679688 87.75 209.933594 88.011719 C 210.808594 89.316406 211.042969 91.445312 211.4375 93.238281 C 211.777344 95.101562 212.039062 96.988281 212.183594 98.878906 C 212.339844 100.765625 212.351562 102.675781 212.527344 104.617188 C 212.703125 106.554688 213.128906 108.476562 213.78125 110.308594 C 215.078125 114.007812 217.371094 117.246094 219.957031 120.089844 C 221.25 121.507812 222.578125 122.910156 224.03125 124.1875 C 225.507812 125.4375 226.925781 126.734375 228.84375 127.535156 C 229.097656 127.597656 229.378906 127.71875 229.78125 127.574219 C 230.265625 127.425781 230.300781 126.804688 230.242188 126.609375 C 230.15625 126.0625 229.980469 125.613281 229.804688 125.152344 C 229.445312 124.246094 229.035156 123.375 228.613281 122.511719 C 227.765625 120.789062 226.875 119.089844 225.953125 117.40625 C 224.203125 113.980469 221.785156 110.925781 220.28125 107.46875 C 217.253906 100.507812 216.871094 92.5625 218.300781 85.164062 C 219.5625 77.585938 224.429688 71.375 228.535156 65.003906 C 229.078125 64.230469 229.648438 63.480469 230.257812 62.777344 C 230.832031 62.121094 231.640625 61.351562 232.167969 61.34375 C 232.550781 61.277344 232.90625 62.425781 232.988281 63.261719 C 233.105469 64.171875 233.140625 65.125 233.171875 66.074219 C 233.265625 67.933594 232.828125 69.761719 232.625 71.699219 L 231.910156 77.429688 C 231.320312 81.164062 231.234375 85.289062 232.828125 88.96875 C 233.585938 90.792969 234.585938 92.496094 235.921875 94.003906 C 236.277344 94.375 236.621094 94.734375 237.109375 95.054688 C 237.410156 95.164062 237.585938 95.460938 238.300781 95.28125 C 239.019531 94.871094 238.871094 94.347656 238.910156 94.117188 C 238.859375 93.011719 238.625 92.140625 238.484375 91.183594 C 237.378906 83.800781 237.332031 75.753906 241.242188 69.289062 C 243.171875 66.113281 245.636719 63.15625 248.421875 60.671875 C 251.199219 58.117188 254.496094 56.332031 257.816406 54.367188 C 259.453125 53.429688 261.109375 52.40625 262.765625 52.007812 C 263.585938 51.832031 264.355469 51.859375 264.9375 52.242188 C 265.042969 52.300781 265.144531 52.410156 265.25 52.539062 C 262.609375 55.710938 260.457031 59.351562 259.148438 63.335938 C 258.464844 65.371094 258.1875 67.484375 257.710938 69.46875 C 257.246094 71.453125 256.589844 73.421875 255.945312 75.386719 C 254.648438 79.304688 252.984375 83.101562 251.402344 86.972656 C 249.800781 90.824219 248.28125 94.703125 246.839844 98.652344 C 244.03125 106.59375 242.003906 114.855469 241.710938 123.351562 C 241.496094 127.566406 241.914062 131.871094 242.460938 135.945312 C 242.929688 139.945312 242.191406 144.085938 240.585938 147.804688 C 239.757812 149.660156 238.660156 151.441406 237.714844 153.324219 C 236.769531 155.207031 235.925781 157.132812 235.230469 159.128906 C 233.851562 163.191406 234.019531 167.464844 233.511719 171.5625 C 233.132812 175.710938 232.476562 179.8125 231.734375 183.914062 C 231.222656 186.871094 230.660156 189.804688 230.035156 192.714844 C 228.832031 192.21875 227.585938 191.839844 226.316406 191.707031 C 222.472656 191.34375 218.605469 191.082031 214.746094 191.472656 C 210.996094 191.921875 207.296875 191.011719 204.027344 189.179688 C 200.761719 187.367188 197.894531 184.8125 195.660156 181.828125 C 193.324219 178.882812 192.316406 175.246094 191.707031 171.5 C 191.109375 167.757812 190.527344 163.9375 190.152344 160.179688 C 189.992188 158.308594 189.847656 156.382812 190.050781 154.605469 Z M 196.726562 159.140625 C 197.640625 160.269531 198.609375 161.363281 199.691406 162.359375 C 201.1875 163.691406 202.800781 164.734375 204.175781 165.953125 C 205.574219 167.160156 206.789062 168.566406 207.953125 170.039062 C 209.101562 171.523438 210.1875 173.074219 211.074219 174.6875 C 211.507812 175.492188 211.914062 176.320312 212.148438 177.140625 C 212.402344 177.964844 212.367188 178.738281 212.046875 179.003906 C 211.703125 179.355469 210.746094 179.484375 209.984375 179.394531 C 209.230469 179.308594 208.582031 178.914062 207.960938 178.304688 C 206.742188 177.066406 205.679688 175.402344 204.550781 173.871094 L 201.160156 169.222656 L 200.308594 168.097656 C 200.128906 167.832031 199.890625 167.320312 199.683594 166.933594 C 199.273438 166.101562 198.90625 165.25 198.582031 164.375 C 197.964844 162.714844 197.519531 160.890625 196.726562 159.140625 Z M 196.726562 159.140625 " fill-opacity="1" fill-rule="nonzero"/></g><path fill="#ffffff" d="M 243.261719 186.019531 C 242.4375 185.746094 241.585938 185.496094 240.671875 185.386719 C 239.777344 185.316406 238.75 185.191406 237.71875 185.9375 C 237.214844 186.367188 237.078125 187.027344 237.125 187.507812 C 237.171875 188.007812 237.316406 188.4375 237.464844 188.855469 C 237.800781 189.679688 238.148438 190.421875 238.625 191.191406 C 239.632812 192.652344 240.78125 193.921875 241.996094 195.125 C 243.242188 196.28125 244.648438 197.308594 246.363281 197.890625 C 247.210938 198.21875 248.125 198.308594 248.960938 198.417969 C 249.785156 198.464844 250.769531 198.714844 251.507812 198.070312 C 252.148438 197.332031 251.933594 196.339844 251.824219 195.503906 C 251.65625 194.644531 251.402344 193.785156 251.054688 192.964844 C 250.355469 191.304688 249.246094 189.910156 247.921875 188.699219 C 246.582031 187.492188 244.96875 186.589844 243.261719 186.019531 Z M 251.269531 195.679688 C 251.601562 196.378906 251.851562 197.304688 251.355469 197.914062 C 250.753906 198.433594 249.816406 198.171875 249.09375 197.886719 C 248.304688 197.574219 247.589844 197.195312 246.972656 196.714844 C 245.726562 195.71875 244.46875 194.683594 243.09375 193.75 C 241.738281 192.824219 240.203125 192.011719 239.179688 190.792969 C 238.730469 190.175781 238.351562 189.378906 238.148438 188.625 C 237.902344 187.882812 238.015625 186.988281 238.410156 186.859375 C 238.832031 186.664062 239.625 186.832031 240.339844 187.042969 C 241.074219 187.261719 241.8125 187.550781 242.558594 187.871094 C 243.980469 188.492188 245.25 189.394531 246.445312 190.390625 C 247.648438 191.375 248.746094 192.554688 249.871094 193.695312 C 250.398438 194.300781 250.925781 194.945312 251.269531 195.679688 Z M 251.269531 195.679688 " fill-opacity="1" fill-rule="nonzero"/><path fill="#ffffff" d="M 225.71875 155.371094 C 226.273438 156.097656 227 156.652344 227.65625 157.183594 C 228.332031 157.660156 229.03125 158.386719 230.003906 158.226562 C 230.941406 157.933594 231.277344 156.976562 231.617188 156.207031 C 231.925781 155.386719 232.160156 154.523438 232.296875 153.640625 C 232.578125 151.855469 232.363281 150.09375 231.875 148.363281 C 231.367188 146.640625 230.476562 145.027344 229.316406 143.640625 C 228.761719 142.972656 228.171875 142.3125 227.449219 141.742188 C 226.726562 141.210938 225.917969 140.5625 224.644531 140.660156 C 223.996094 140.753906 223.53125 141.253906 223.316406 141.6875 C 223.097656 142.136719 222.988281 142.574219 222.898438 143.007812 C 222.746094 143.886719 222.65625 144.699219 222.65625 145.609375 C 222.75 147.382812 223.0625 149.0625 223.460938 150.722656 C 223.910156 152.363281 224.570312 153.976562 225.71875 155.371094 Z M 223.597656 143.175781 C 223.78125 142.414062 224.347656 141.710938 224.746094 141.8125 C 225.203125 141.871094 225.804688 142.425781 226.296875 142.984375 C 226.800781 143.558594 227.277344 144.191406 227.746094 144.851562 C 228.632812 146.125 229.234375 147.5625 229.726562 149.035156 C 230.238281 150.503906 230.550781 152.085938 230.914062 153.644531 C 231.039062 154.441406 231.152344 155.261719 231.0625 156.070312 C 230.976562 156.835938 230.707031 157.765625 229.957031 158.023438 C 229.175781 158.144531 228.519531 157.433594 228.046875 156.804688 C 227.539062 156.128906 227.132812 155.433594 226.859375 154.699219 C 226.320312 153.195312 225.792969 151.652344 225.117188 150.140625 C 224.449219 148.640625 223.574219 147.144531 223.347656 145.570312 C 223.28125 144.796875 223.378906 143.921875 223.597656 143.175781 Z M 223.597656 143.175781 " fill-opacity="1" fill-rule="nonzero"/><g clip-path="url(#c4425a30b1)"><path fill="#0d484e" d="M 118.871094 287.792969 C 119.234375 286.816406 119.863281 285.339844 120.910156 283.714844 C 123.21875 280.121094 125.304688 279.304688 126.792969 277.148438 C 129.554688 273.167969 127.570312 268.550781 127.925781 266.511719 C 128.804688 261.476562 146.5625 257.554688 214.398438 260.625 C 214.601562 264.210938 215.113281 268.429688 216.210938 273.074219 C 217.609375 279.003906 219.570312 283.949219 221.417969 287.792969 C 187.234375 287.792969 153.050781 287.792969 118.871094 287.792969 Z M 118.871094 287.792969 " fill-opacity="1" fill-rule="nonzero"/></g><path fill="#d89c78" d="M 156.335938 96.847656 C 154.558594 98.550781 153.3125 100.855469 152.597656 102.167969 C 152.277344 102.757812 151.300781 104.617188 150.449219 107.257812 C 149.746094 109.445312 149.757812 110.199219 148.976562 113.9375 C 147.78125 119.648438 147.496094 119.097656 147.394531 120.957031 C 147.265625 123.378906 147.796875 125.359375 148.863281 129.328125 C 149.980469 133.476562 151.183594 136.175781 151.46875 136.800781 C 152.410156 138.882812 153.160156 140.5 154.636719 142.34375 C 154.984375 142.777344 156.171875 144.210938 158.601562 146.078125 C 161.253906 148.117188 163.546875 149.886719 166.410156 150.605469 C 172.792969 152.207031 178.710938 147.757812 179.839844 146.90625 C 184.191406 143.632812 185.925781 139.386719 187.386719 135.816406 C 188.976562 131.929688 189.558594 128.480469 189.800781 126.160156 C 189.992188 126.460938 190.289062 126.894531 190.707031 127.367188 C 191.296875 128.039062 191.691406 128.484375 192.0625 128.578125 C 193.222656 128.851562 194.734375 126.34375 195.457031 124.804688 C 196.15625 123.320312 196.433594 122.050781 196.730469 120.304688 C 197.484375 115.910156 198.300781 111.128906 197.117188 110.691406 C 196.796875 110.574219 196.441406 110.816406 195.734375 111.308594 C 194.75 111.996094 194.109375 112.890625 193.421875 114.238281 C 192.230469 116.570312 192.171875 117.792969 191.832031 117.78125 C 191.3125 117.769531 191.230469 114.796875 190.554688 111.519531 C 190.019531 108.957031 189.292969 105.429688 186.925781 102.015625 C 184.003906 97.789062 180.078125 95.902344 178.78125 95.300781 C 178.289062 95.070312 175.914062 93.988281 172.441406 93.488281 C 169.929688 93.125 161.488281 91.910156 156.335938 96.847656 Z M 156.335938 96.847656 " fill-opacity="1" fill-rule="nonzero"/><path fill="#d89c78" d="M 212.472656 229.382812 C 212.699219 234.101562 212.921875 238.816406 213.152344 243.53125 C 211.828125 243.71875 209.847656 244.054688 207.492188 244.664062 C 203.921875 245.589844 201.980469 246.503906 199.910156 247.265625 C 196.046875 248.695312 191.972656 249.203125 183.835938 250.210938 C 179.316406 250.773438 175.839844 251.027344 174.554688 251.117188 C 159.507812 252.171875 151.984375 252.699219 145.582031 251.003906 C 137.480469 248.859375 130.5625 244.328125 123.964844 244.554688 C 120.589844 244.667969 117.773438 246.011719 117.058594 246.363281 C 114.4375 247.671875 113.59375 248.96875 113.324219 249.421875 C 113.132812 249.738281 112.378906 251.011719 112.304688 252.703125 C 112.253906 253.832031 112.550781 254.183594 112.417969 255.757812 C 112.378906 256.25 112.308594 256.644531 112.417969 257.230469 C 112.546875 257.917969 112.917969 258.925781 113.324219 258.925781 C 113.804688 258.929688 114.027344 257.496094 114.566406 256.097656 C 115.058594 254.828125 115.996094 253.117188 117.964844 251.339844 C 118.007812 251.300781 116.960938 252.214844 116.132812 253.324219 C 115.878906 253.664062 115.332031 254.425781 114.902344 255.320312 C 114.714844 255.714844 114.566406 256.09375 114.566406 256.09375 C 114.449219 256.394531 114.371094 256.640625 114.21875 257.109375 C 114.109375 257.449219 114.011719 257.761719 113.988281 257.839844 C 113.746094 258.660156 113.84375 260.039062 113.925781 260.808594 C 113.113281 261.292969 112.570312 261.800781 112.226562 262.167969 C 111.902344 262.519531 111.777344 262.726562 111.699219 262.960938 C 111.558594 263.40625 111.644531 263.789062 111.777344 264.355469 C 111.820312 264.5625 112.097656 265.800781 112.566406 266.054688 C 113.011719 266.292969 113.71875 265.699219 114.453125 265.152344 C 115.253906 264.550781 116.414062 263.761719 117.964844 262.960938 C 115.832031 264.367188 113.699219 265.777344 111.566406 267.1875 C 111.363281 267.5 111.109375 268.003906 111.144531 268.601562 C 111.207031 269.714844 112.226562 270.4375 113.152344 271.089844 C 114.542969 272.074219 115.863281 272.417969 116.234375 272.507812 C 119.132812 273.203125 122.085938 272.449219 122.234375 271.597656 C 122.265625 271.417969 122.183594 271.15625 122.335938 270.769531 C 122.367188 270.691406 122.511719 270.332031 122.828125 270.128906 C 123.265625 269.847656 123.832031 270.003906 124.035156 270.054688 C 125.375 270.402344 126.824219 270.257812 128.144531 270.660156 C 129.039062 270.929688 136.082031 272.957031 142.632812 272.242188 C 146.25 271.851562 146.199219 271.007812 149.800781 270.808594 C 153.925781 270.585938 157.007812 271.523438 158.476562 271.941406 C 164.257812 273.566406 170.78125 273.894531 183.832031 274.546875 C 191.453125 274.925781 195.261719 275.117188 199.382812 274.433594 C 206.601562 273.226562 206.484375 271.546875 214.390625 270.46875 C 222.648438 269.347656 226.78125 268.789062 229.332031 269.339844 C 229.703125 269.417969 230.933594 269.710938 232.273438 269.226562 C 233.992188 268.605469 234.890625 267.066406 235.214844 266.507812 C 238.273438 261.273438 237.792969 245.898438 238.839844 234.589844 C 239.042969 232.398438 239.277344 230.65625 239.40625 229.726562 C 237.3125 227.867188 235.328125 226.8125 233.976562 226.21875 C 233.035156 225.804688 224.902344 222.375 216.882812 226.332031 C 214.792969 227.363281 213.316406 228.597656 212.472656 229.382812 Z M 212.472656 229.382812 " fill-opacity="1" fill-rule="nonzero"/><path fill="#d89c78" d="M 184.84375 141.070312 C 185.675781 141.300781 185.027344 145.089844 184.742188 151.289062 C 184.742188 151.289062 184.464844 157.398438 184.855469 164.417969 C 185.144531 169.613281 185.75 173.074219 186.210938 176.191406 C 188.839844 193.800781 190.152344 202.609375 186.324219 207.089844 C 181.960938 212.203125 172.148438 213.335938 167.359375 209.425781 C 164.199219 206.84375 163.910156 202.625 163.464844 194.300781 C 162.976562 185.203125 164.035156 179.96875 164.480469 173.472656 C 164.875 167.804688 164.910156 159.523438 163.003906 149.183594 C 164.046875 149.800781 165.988281 150.765625 168.566406 150.914062 C 170.738281 151.039062 172.355469 150.527344 173.734375 150.078125 C 174.890625 149.699219 178.460938 148.484375 181.554688 145.164062 C 183.777344 142.765625 184.25 140.898438 184.84375 141.070312 Z M 184.84375 141.070312 " fill-opacity="1" fill-rule="nonzero"/><path fill="#0d484e" d="M 186.027344 155.4375 C 186.617188 156.773438 187.628906 158.667969 189.34375 160.570312 C 190.617188 161.980469 192.015625 163.527344 194.023438 164.34375 C 197.546875 165.765625 199.765625 163.640625 207.191406 162.710938 C 209.753906 162.394531 211.625 162.15625 213.945312 162.382812 C 221.976562 163.148438 227.382812 168.628906 227.902344 169.171875 C 232.300781 173.761719 233.261719 178.964844 234.464844 185.472656 C 235.140625 189.121094 235.246094 193.335938 235.445312 201.769531 C 235.636719 209.484375 235.371094 210.074219 235.671875 213.542969 C 236.050781 217.910156 237.027344 223.414062 239.40625 229.726562 C 238.453125 228.871094 237.0625 227.78125 235.210938 226.816406 C 234.40625 226.398438 232.167969 225.304688 229.027344 224.785156 C 226.914062 224.4375 222.222656 223.660156 217.765625 225.9375 C 214.570312 227.566406 213.261719 229.867188 212.472656 229.386719 C 211.789062 228.976562 212.464844 227.09375 213.1875 223.050781 C 213.730469 220.011719 214.140625 217.707031 214.164062 215.128906 C 214.226562 209.464844 212.367188 208.207031 213.640625 204.71875 C 214.210938 203.144531 214.824219 202.75 215.222656 200.867188 C 215.734375 198.460938 215.289062 196.511719 215 195.207031 C 214.332031 192.210938 213.640625 188.632812 212.808594 183.890625 C 212.804688 183.855469 214.363281 192.535156 215.121094 195.789062 C 215.207031 196.144531 215.441406 197.125 215.453125 198.433594 C 215.457031 198.894531 215.460938 199.796875 215.222656 200.867188 C 214.785156 202.828125 214.074219 202.945312 213.53125 205.03125 C 213.199219 206.324219 213.210938 207.296875 213.21875 207.609375 C 213.253906 208.820312 213.542969 209.703125 213.640625 210.019531 C 214.488281 212.808594 214.09375 216.722656 213.894531 218.738281 C 213.566406 222.007812 213.039062 221.972656 212.6875 225.617188 C 212.503906 227.515625 212.503906 228.992188 212.535156 230.859375 C 212.59375 233.796875 212.738281 238.066406 213.144531 243.535156 C 209.832031 243.929688 207.253906 244.640625 205.484375 245.238281 C 203.117188 246.03125 202.140625 246.628906 199.191406 247.523438 C 196.953125 248.207031 195.25 248.550781 193.632812 248.871094 C 191.355469 249.324219 189.152344 249.664062 183.425781 250.265625 C 179.722656 250.652344 177.515625 250.886719 174.199219 251.144531 C 169.375 251.523438 162.429688 251.941406 153.65625 252.070312 C 158.222656 238.886719 153.582031 226.113281 145.34375 222.144531 C 139.351562 219.261719 131.175781 220.90625 125.695312 223.863281 C 123.050781 225.296875 121.132812 226.980469 119.878906 228.261719 C 120.25 230.707031 120.578125 233.214844 120.859375 235.800781 C 120.949219 236.621094 121.03125 237.433594 121.113281 238.246094 C 119.972656 237.601562 118.859375 236.714844 118.015625 235.449219 C 115.964844 232.382812 117.054688 229.421875 117.109375 221.019531 C 117.121094 218.910156 117.0625 217.40625 116.9375 214.394531 C 116.804688 211.09375 116.640625 207.011719 116.09375 202.625 C 115.578125 198.515625 115.328125 198.9375 114.167969 192.265625 C 112.328125 181.695312 112.769531 179.542969 113.355469 177.929688 C 114.589844 174.539062 116.890625 172.410156 117.960938 171.445312 C 119.792969 169.785156 122.152344 168.324219 126.789062 166.917969 C 133.304688 164.933594 136.894531 165.292969 140.597656 164.652344 C 144.988281 163.894531 151.15625 161.457031 158.027344 153.5625 C 161.605469 155.667969 164.085938 157.589844 165.722656 158.992188 C 166.449219 159.617188 167.378906 160.457031 168.894531 161.144531 C 168.894531 161.144531 171.355469 162.261719 174.4375 162.164062 C 180.644531 161.949219 185.585938 155.988281 186.027344 155.4375 Z M 186.027344 155.4375 " fill-opacity="1" fill-rule="nonzero"/><path fill="#d89c78" d="M 174.253906 176.414062 C 173.1875 176.609375 172.964844 179.9375 172.75 183.203125 C 172.441406 187.785156 172.257812 190.574219 173.199219 194.074219 C 174.328125 198.265625 177.117188 203.632812 178.933594 203.277344 C 180.832031 202.910156 181.089844 196.410156 180.980469 193.46875 C 180.792969 188.335938 179.160156 184.707031 177.785156 181.648438 C 176.746094 179.339844 175.339844 176.214844 174.253906 176.414062 Z M 174.253906 176.414062 " fill-opacity="1" fill-rule="nonzero"/><path fill="#653a2a" d="M 126.109375 167.121094 C 127.738281 165.429688 129.617188 163.121094 131.242188 160.113281 C 134.664062 153.804688 135.164062 147.792969 135.167969 144.417969 C 137.09375 130.59375 138.164062 119.796875 138.789062 112.425781 C 139.265625 106.8125 139.597656 101.828125 142.109375 95.523438 C 143.394531 92.296875 146.089844 85.757812 152.671875 80.132812 C 155.792969 77.46875 158.734375 74.714844 163.539062 73.792969 C 167.808594 72.972656 171.429688 73.921875 173.421875 74.621094 C 174.246094 74.207031 175.546875 73.675781 177.195312 73.5625 C 179.910156 73.378906 181.960938 74.429688 182.929688 74.921875 C 190.667969 78.882812 195.53125 89.035156 195.53125 89.035156 C 198.585938 95.414062 199.378906 100.78125 200.960938 111.519531 C 202.464844 121.730469 203.222656 126.839844 203.070312 133.398438 C 203.007812 136.253906 202.753906 140.882812 203.828125 147.128906 C 204.335938 150.097656 204.71875 152.296875 205.636719 154.679688 C 206.976562 158.136719 208.742188 160.710938 210.082031 162.382812 C 208.40625 162.515625 206.570312 162.742188 204.601562 163.105469 C 202.742188 163.449219 201.03125 163.867188 199.496094 164.316406 C 198.800781 164.570312 196.882812 165.160156 194.5625 164.53125 C 191.792969 163.78125 190.332031 161.792969 189.953125 161.238281 C 189.230469 160.496094 188.414062 159.539062 187.625 158.355469 C 186.925781 157.304688 186.40625 156.304688 186.019531 155.433594 C 185.5625 155.9375 185.097656 156.441406 184.640625 156.941406 C 184.640625 156.59375 184.648438 152.9375 184.773438 150.613281 C 184.855469 149.035156 184.921875 148.183594 184.921875 148.179688 C 185.019531 146.921875 185.054688 146.207031 185.078125 145.90625 C 185.148438 144.800781 185.183594 143.152344 184.972656 140.84375 C 185.253906 140.363281 185.625 139.695312 186.027344 138.886719 C 187.644531 135.671875 188.429688 132.984375 188.726562 131.90625 C 189.117188 130.460938 189.523438 128.617188 189.765625 126.441406 C 190.101562 126.859375 190.613281 127.441406 191.332031 128.058594 C 191.707031 128.375 191.898438 128.539062 192.058594 128.574219 C 193.167969 128.8125 194.6875 126.457031 195.453125 124.800781 C 196.082031 123.445312 196.320312 122.257812 196.800781 119.878906 C 196.855469 119.605469 197.023438 118.523438 197.371094 116.359375 C 197.566406 115.097656 197.683594 114.335938 197.695312 113.28125 C 197.703125 112.53125 197.65625 111.910156 197.613281 111.492188 C 197.613281 111.429688 197.59375 110.976562 197.273438 110.789062 C 196.996094 110.625 196.667969 110.757812 196.410156 110.859375 C 196.179688 110.953125 196.027344 111.066406 195.730469 111.308594 C 195.238281 111.71875 194.996094 111.921875 194.792969 112.128906 C 194.28125 112.667969 193.980469 113.195312 193.804688 113.519531 C 192.714844 115.550781 192.253906 117.789062 191.832031 117.785156 C 191.382812 117.78125 191.246094 115.382812 190.761719 112.644531 C 190.273438 109.890625 189.527344 107.28125 188.921875 105.742188 C 186.957031 100.699219 182.925781 97.789062 181.8125 97.007812 C 177.195312 93.757812 172.566406 93.378906 169.8125 93.183594 C 166.734375 92.972656 163.855469 92.765625 160.644531 94.195312 C 154.964844 96.71875 152.492188 102.21875 151.257812 105.011719 C 150.335938 107.105469 149.839844 109.582031 148.839844 114.535156 C 147.605469 120.664062 147.714844 123.117188 147.832031 124.460938 C 148.042969 126.820312 148.535156 128.425781 149.316406 130.957031 C 150.574219 135.050781 151.699219 138.710938 154.625 142.347656 C 155.894531 143.925781 157.804688 145.863281 160.613281 147.613281 C 160.039062 147.929688 159.191406 148.332031 158.105469 148.648438 C 156.648438 149.066406 155.40625 149.125 153.34375 149.097656 C 148.386719 149.042969 148.574219 148.613281 147.792969 148.945312 C 146.1875 149.625 145.625 151.347656 143.71875 157.839844 C 143.03125 160.179688 142.347656 162.515625 141.660156 164.851562 C 140.214844 164.851562 138.683594 164.914062 137.078125 165.046875 C 132.910156 165.40625 129.222656 166.199219 126.109375 167.121094 Z M 126.109375 167.121094 " fill-opacity="1" fill-rule="nonzero"/><path fill="#d89c78" d="M 119.890625 228.25 C 120.425781 231.414062 120.726562 234.042969 120.90625 235.949219 C 121.214844 239.226562 121.371094 240.863281 121.359375 242.511719 C 121.34375 245.035156 121.113281 245.785156 121.585938 247.265625 C 121.691406 247.601562 122.011719 248.523438 124.078125 251.339844 C 125.484375 253.265625 126.019531 253.773438 127.019531 255.078125 C 129.445312 258.253906 129.050781 258.882812 130.640625 260.851562 C 131.300781 261.671875 133.835938 264.71875 138.109375 265.71875 C 139.183594 265.96875 142.910156 266.839844 145.921875 264.816406 C 146.820312 264.210938 147.550781 263.082031 148.976562 260.851562 C 151.039062 257.625 152.574219 255.222656 153.84375 251.570312 C 154.078125 250.890625 154.726562 248.957031 155.199219 246.363281 C 156.113281 241.363281 155.769531 237.257812 155.3125 233.347656 C 154.371094 225.296875 153.640625 223.828125 152.371094 215.238281 C 151.320312 208.109375 152.007812 210.335938 150.785156 201.203125 C 149.683594 192.949219 148.949219 189.835938 150.449219 185.582031 C 150.867188 184.390625 151.882812 181.914062 153.730469 179.246094 C 155.632812 176.5 156.160156 176.851562 158.144531 174.042969 C 160.503906 170.699219 161.96875 168.621094 162.332031 166.003906 C 162.363281 165.78125 162.59375 164.058594 163.691406 162.382812 C 164.261719 161.507812 164.648438 161.292969 164.933594 161.191406 C 164.933594 161.191406 165.464844 161.011719 167.59375 161.585938 C 167.59375 161.585938 167.601562 161.601562 167.609375 161.617188 C 168.335938 163.109375 168.675781 164.070312 168.898438 164.589844 C 169.203125 165.300781 169.742188 166.570312 170.9375 167.421875 C 171.953125 168.140625 173.503906 168.597656 174.050781 168.042969 C 174.546875 167.535156 173.867188 166.542969 174.386719 166.0625 C 174.960938 165.535156 176.113281 166.425781 176.765625 165.949219 C 177.25 165.59375 177.234375 164.636719 176.933594 163.34375 C 175.890625 158.867188 172.699219 155.890625 172.179688 155.421875 C 171.394531 154.710938 170.183594 153.726562 168.503906 152.816406 C 171.648438 152.503906 174.058594 152.683594 175.746094 152.929688 C 177.097656 153.125 178.132812 153.152344 178.347656 152.703125 C 178.667969 152.039062 177.074219 150.484375 175.523438 149.589844 C 174.148438 148.800781 172.925781 148.597656 171.671875 148.398438 C 165.789062 147.480469 162.824219 147.023438 161.769531 147.269531 C 159.535156 147.789062 159.339844 148.566406 156.675781 148.949219 C 154.9375 149.199219 153.175781 149.132812 152.375 149.097656 C 149.316406 148.972656 148.421875 148.46875 147.316406 149.175781 C 146.632812 149.613281 146.300781 150.328125 145.65625 151.742188 C 145.128906 152.910156 144.535156 154.5 144.148438 156.496094 C 143.171875 159.582031 142.4375 162.109375 141.960938 163.816406 C 140.519531 168.925781 140.382812 170.066406 139.09375 174.304688 C 137.914062 178.179688 137.734375 178.195312 137.132812 180.570312 C 136.199219 184.25 135.941406 186.941406 135.695312 189.023438 C 135.695312 189.023438 134.898438 195.847656 133.28125 202.90625 C 133.28125 202.90625 131.480469 210.765625 127.09375 222.675781 C 127.050781 222.792969 126.9375 223.089844 126.789062 223.503906 C 125.953125 225.859375 125.601562 227.800781 125.625 227.808594 C 125.632812 227.8125 125.792969 227.207031 126.375 224.792969 C 126.515625 224.363281 126.652344 223.933594 126.789062 223.503906 C 126.703125 223.417969 126.613281 223.328125 126.527344 223.242188 C 124.316406 224.910156 122.101562 226.578125 119.890625 228.25 Z M 119.890625 228.25 " fill-opacity="1" fill-rule="nonzero"/></svg>