<svg xmlns="http://www.w3.org/2000/svg" xmlns:xlink="http://www.w3.org/1999/xlink" width="500" zoomAndPan="magnify" viewBox="0 0 375 374.999991" height="500" preserveAspectRatio="xMidYMid meet" version="1.0"><defs><g/><clipPath id="39ed1ae86b"><path d="M 66.027344 56.566406 L 309.027344 56.566406 L 309.027344 299.566406 L 66.027344 299.566406 Z M 66.027344 56.566406 " clip-rule="nonzero"/></clipPath></defs><rect x="-37.5" width="450" fill="#ffffff" y="-37.499999" height="449.999989" fill-opacity="1"/><rect x="-37.5" width="450" fill="#ffffff" y="-37.499999" height="449.999989" fill-opacity="1"/><rect x="-37.5" width="450" fill="#000000" y="-37.499999" height="449.999989" fill-opacity="1"/><g clip-path="url(#39ed1ae86b)"><path fill="#ffffff" d="M 187.527344 299.566406 C 120.554688 299.566406 66.027344 245.042969 66.027344 178.066406 C 66.027344 111.09375 120.554688 56.566406 187.527344 56.566406 C 254.503906 56.566406 309.027344 111.09375 309.027344 178.066406 C 309.027344 245.042969 254.503906 299.566406 187.527344 299.566406 Z M 187.527344 58.363281 C 121.511719 58.363281 67.824219 112.050781 67.824219 178.066406 C 67.824219 244.082031 121.511719 297.769531 187.527344 297.769531 C 253.542969 297.769531 307.230469 244.082031 307.230469 178.066406 C 307.230469 112.050781 253.542969 58.363281 187.527344 58.363281 Z M 187.527344 58.363281 " fill-opacity="1" fill-rule="nonzero"/></g><g fill="#ffffff" fill-opacity="1"><g transform="translate(109.03817, 170.107825)"><g><path d="M 3.296875 -14.484375 L 3.296875 -0.953125 L 11.234375 -0.953125 L 11.234375 0 L 2.296875 0 L 2.296875 -14.484375 Z M 3.296875 -14.484375 "/></g></g></g><g fill="#ffffff" fill-opacity="1"><g transform="translate(125.698796, 170.107825)"><g><path d="M 10.34375 -4.796875 L 3.953125 -4.796875 L 2.03125 0 L 1.046875 0 L 7.15625 -15.109375 L 7.234375 -15.109375 L 13.359375 0 L 12.234375 0 Z M 9.96875 -5.734375 L 7.171875 -12.84375 L 4.328125 -5.734375 Z M 9.96875 -5.734375 "/></g></g></g><g fill="#ffffff" fill-opacity="1"><g transform="translate(144.459665, 170.107825)"><g><path d="M 13.3125 -14.484375 L 7.15625 0.671875 L 1 -14.484375 L 2.15625 -14.484375 L 7.21875 -1.671875 L 12.171875 -14.484375 Z M 13.3125 -14.484375 "/></g></g></g><g fill="#ffffff" fill-opacity="1"><g transform="translate(163.138959, 170.107825)"><g><path d="M 11.234375 -14.484375 L 11.234375 -13.515625 L 3.296875 -13.515625 L 3.296875 -7.765625 L 10.4375 -7.765625 L 10.4375 -6.8125 L 3.296875 -6.8125 L 3.296875 -0.953125 L 11.515625 -0.953125 L 11.515625 0 L 2.296875 0 L 2.296875 -14.484375 Z M 11.234375 -14.484375 "/></g></g></g><g fill="#ffffff" fill-opacity="1"><g transform="translate(180.533646, 170.107825)"><g><path d="M 11.234375 -14.484375 L 11.234375 -13.515625 L 3.296875 -13.515625 L 3.296875 -7.765625 L 10.4375 -7.765625 L 10.4375 -6.8125 L 3.296875 -6.8125 L 3.296875 -0.953125 L 11.515625 -0.953125 L 11.515625 0 L 2.296875 0 L 2.296875 -14.484375 Z M 11.234375 -14.484375 "/></g></g></g><g fill="#ffffff" fill-opacity="1"><g transform="translate(197.928332, 170.107825)"><g><path d="M 9.546875 -12.84375 C 9.054688 -13.070312 8.507812 -13.269531 7.90625 -13.4375 C 7.3125 -13.601562 6.726562 -13.6875 6.15625 -13.6875 C 5.207031 -13.6875 4.445312 -13.453125 3.875 -12.984375 C 3.300781 -12.515625 3.015625 -11.910156 3.015625 -11.171875 C 3.015625 -10.660156 3.164062 -10.222656 3.46875 -9.859375 C 3.78125 -9.492188 4.171875 -9.191406 4.640625 -8.953125 C 5.117188 -8.722656 5.734375 -8.460938 6.484375 -8.171875 C 7.296875 -7.878906 7.96875 -7.578125 8.5 -7.265625 C 9.039062 -6.953125 9.492188 -6.523438 9.859375 -5.984375 C 10.234375 -5.441406 10.421875 -4.753906 10.421875 -3.921875 C 10.421875 -3.117188 10.226562 -2.40625 9.84375 -1.78125 C 9.46875 -1.164062 8.9375 -0.6875 8.25 -0.34375 C 7.5625 -0.0078125 6.773438 0.15625 5.890625 0.15625 C 4.359375 0.15625 2.835938 -0.335938 1.328125 -1.328125 L 1.796875 -2.140625 C 2.296875 -1.753906 2.910156 -1.421875 3.640625 -1.140625 C 4.378906 -0.859375 5.097656 -0.71875 5.796875 -0.71875 C 6.398438 -0.71875 6.976562 -0.832031 7.53125 -1.0625 C 8.082031 -1.300781 8.53125 -1.660156 8.875 -2.140625 C 9.226562 -2.628906 9.40625 -3.210938 9.40625 -3.890625 C 9.40625 -4.535156 9.242188 -5.070312 8.921875 -5.5 C 8.597656 -5.9375 8.195312 -6.285156 7.71875 -6.546875 C 7.238281 -6.816406 6.628906 -7.085938 5.890625 -7.359375 C 5.078125 -7.660156 4.40625 -7.945312 3.875 -8.21875 C 3.34375 -8.5 2.894531 -8.867188 2.53125 -9.328125 C 2.175781 -9.796875 2 -10.378906 2 -11.078125 C 2 -11.753906 2.171875 -12.351562 2.515625 -12.875 C 2.859375 -13.394531 3.335938 -13.800781 3.953125 -14.09375 C 4.578125 -14.382812 5.269531 -14.539062 6.03125 -14.5625 C 6.6875 -14.5625 7.363281 -14.472656 8.0625 -14.296875 C 8.757812 -14.117188 9.382812 -13.894531 9.9375 -13.625 Z M 9.546875 -12.84375 "/></g></g></g><g fill="#ffffff" fill-opacity="1"><g transform="translate(214.140358, 170.107825)"><g><path d="M 13.03125 0 L 12.03125 0 L 12.03125 -6.8125 L 3.296875 -6.8125 L 3.296875 0 L 2.296875 0 L 2.296875 -14.484375 L 3.296875 -14.484375 L 3.296875 -7.75 L 12.03125 -7.75 L 12.03125 -14.484375 L 13.03125 -14.484375 Z M 13.03125 0 "/></g></g></g><g fill="#ffffff" fill-opacity="1"><g transform="translate(233.839197, 170.107825)"><g><path d="M 3.28125 -7.234375 L 3.34375 -7.421875 L 10.5 -14.484375 L 11.78125 -14.484375 L 5.796875 -8.546875 L 12.453125 0 L 11.1875 0 L 5.0625 -7.90625 L 3.296875 -6.234375 L 3.328125 0 L 2.296875 0 L 2.296875 -14.484375 L 3.328125 -14.484375 L 3.328125 -7.953125 Z M 3.28125 -7.234375 "/></g></g></g><g fill="#ffffff" fill-opacity="1"><g transform="translate(251.560131, 170.107825)"><g><path d="M 10.34375 -4.796875 L 3.953125 -4.796875 L 2.03125 0 L 1.046875 0 L 7.15625 -15.109375 L 7.234375 -15.109375 L 13.359375 0 L 12.234375 0 Z M 9.96875 -5.734375 L 7.171875 -12.84375 L 4.328125 -5.734375 Z M 9.96875 -5.734375 "/></g></g></g><g fill="#ffffff" fill-opacity="1"><g transform="translate(121.881919, 210.607822)"><g><path d="M 16.171875 -14.796875 L 16.171875 0 L 15.1875 0 L 15.1875 -11.890625 L 9.234375 -3.5 L 9.203125 -3.5 L 3.28125 -11.78125 L 3.28125 0 L 2.296875 0 L 2.296875 -14.796875 L 2.328125 -14.796875 L 9.21875 -5 L 16.15625 -14.796875 Z M 16.171875 -14.796875 "/></g></g></g><g fill="#ffffff" fill-opacity="1"><g transform="translate(144.720924, 210.607822)"><g><path d="M 10.34375 -4.796875 L 3.953125 -4.796875 L 2.03125 0 L 1.046875 0 L 7.15625 -15.109375 L 7.234375 -15.109375 L 13.359375 0 L 12.234375 0 Z M 9.96875 -5.734375 L 7.171875 -12.84375 L 4.328125 -5.734375 Z M 9.96875 -5.734375 "/></g></g></g><g fill="#ffffff" fill-opacity="1"><g transform="translate(163.481793, 210.607822)"><g><path d="M 13.03125 0 L 12.03125 0 L 12.03125 -6.8125 L 3.296875 -6.8125 L 3.296875 0 L 2.296875 0 L 2.296875 -14.484375 L 3.296875 -14.484375 L 3.296875 -7.75 L 12.03125 -7.75 L 12.03125 -14.484375 L 13.03125 -14.484375 Z M 13.03125 0 "/></g></g></g><g fill="#ffffff" fill-opacity="1"><g transform="translate(183.18063, 210.607822)"><g><path d="M 10.34375 -4.796875 L 3.953125 -4.796875 L 2.03125 0 L 1.046875 0 L 7.15625 -15.109375 L 7.234375 -15.109375 L 13.359375 0 L 12.234375 0 Z M 9.96875 -5.734375 L 7.171875 -12.84375 L 4.328125 -5.734375 Z M 9.96875 -5.734375 "/></g></g></g><g fill="#ffffff" fill-opacity="1"><g transform="translate(201.941501, 210.607822)"><g><path d="M 2.296875 -14.484375 L 5.875 -14.484375 C 7.632812 -14.484375 9.097656 -14.117188 10.265625 -13.390625 C 11.429688 -12.671875 12.28125 -11.753906 12.8125 -10.640625 C 13.351562 -9.523438 13.625 -8.363281 13.625 -7.15625 C 13.625 -5.738281 13.300781 -4.488281 12.65625 -3.40625 C 12.007812 -2.320312 11.144531 -1.484375 10.0625 -0.890625 C 8.976562 -0.296875 7.8125 0 6.5625 0 L 2.296875 0 Z M 6.296875 -0.953125 C 7.460938 -0.953125 8.523438 -1.207031 9.484375 -1.71875 C 10.441406 -2.226562 11.195312 -2.957031 11.75 -3.90625 C 12.3125 -4.851562 12.59375 -5.957031 12.59375 -7.21875 C 12.59375 -8.34375 12.335938 -9.382812 11.828125 -10.34375 C 11.328125 -11.300781 10.578125 -12.066406 9.578125 -12.640625 C 8.585938 -13.210938 7.398438 -13.5 6.015625 -13.5 L 3.296875 -13.5 L 3.296875 -0.953125 Z M 6.296875 -0.953125 "/></g></g></g><g fill="#ffffff" fill-opacity="1"><g transform="translate(221.314087, 210.607822)"><g><path d="M 11.234375 -14.484375 L 11.234375 -13.515625 L 3.296875 -13.515625 L 3.296875 -7.765625 L 10.4375 -7.765625 L 10.4375 -6.8125 L 3.296875 -6.8125 L 3.296875 -0.953125 L 11.515625 -0.953125 L 11.515625 0 L 2.296875 0 L 2.296875 -14.484375 Z M 11.234375 -14.484375 "/></g></g></g><g fill="#ffffff" fill-opacity="1"><g transform="translate(238.708774, 210.607822)"><g><path d="M 10.34375 -4.796875 L 3.953125 -4.796875 L 2.03125 0 L 1.046875 0 L 7.15625 -15.109375 L 7.234375 -15.109375 L 13.359375 0 L 12.234375 0 Z M 9.96875 -5.734375 L 7.171875 -12.84375 L 4.328125 -5.734375 Z M 9.96875 -5.734375 "/></g></g></g><path fill="#000000" d="M 240.382812 317.648438 C 236.140625 319.113281 231.84375 320.402344 227.492188 321.511719 C 223.140625 322.621094 218.75 323.550781 214.324219 324.292969 C 209.894531 325.035156 205.441406 325.59375 200.96875 325.96875 C 196.492188 326.339844 192.011719 326.527344 187.519531 326.527344 C 183.027344 326.527344 178.546875 326.339844 174.070312 325.96875 C 169.597656 325.59375 165.144531 325.035156 160.71875 324.289062 C 156.289062 323.546875 151.898438 322.621094 147.546875 321.507812 C 143.199219 320.398438 138.902344 319.109375 134.65625 317.644531 L 156.136719 255.726562 C 161.183594 257.472656 166.34375 258.789062 171.609375 259.675781 C 176.875 260.558594 182.179688 261.003906 187.523438 261.003906 C 192.863281 261.003906 198.167969 260.558594 203.433594 259.675781 C 208.703125 258.789062 213.859375 257.476562 218.90625 255.730469 Z M 240.382812 317.648438 " fill-opacity="1" fill-rule="nonzero"/><g fill="#ffffff" fill-opacity="1"><g transform="translate(155.52089, 299.834208)"><g><path d="M -0.984375 3.378906 C 0.90625 3.753906 2.898438 0.484375 3.382812 -1.292969 C 3.582031 -1.835938 3.976562 -2.25 4.515625 -2.5 L 8.589844 -4.324219 C 9.824219 -4.929688 11.046875 -5.445312 12.367188 -6.03125 C 12.710938 -6.1875 13.011719 -6.351562 13.183594 -6.539062 C 13.441406 -6.710938 13.441406 -6.9375 13.226562 -7.203125 C 13.15625 -7.304688 13.078125 -7.363281 12.949219 -7.390625 C 12.820312 -7.417969 12.683594 -7.398438 12.539062 -7.339844 C 12.382812 -7.234375 12.238281 -7.175781 12.101562 -7.15625 L 4.996094 -4.011719 C 4.800781 -3.917969 4.558594 -3.832031 4.273438 -3.753906 C 4.1875 -3.992188 4.128906 -4.140625 4.136719 -4.183594 C 4.316406 -5.753906 4.355469 -7.3125 4.363281 -8.917969 C 4.363281 -9.140625 4.371094 -9.40625 4.414062 -9.621094 C 4.457031 -9.835938 4.507812 -10.09375 4.59375 -10.300781 C 5.039062 -11.867188 6.679688 -12.925781 8.269531 -12.609375 C 8.398438 -12.585938 8.484375 -12.566406 8.535156 -12.601562 C 8.863281 -12.671875 9.015625 -12.996094 8.84375 -13.253906 C 8.566406 -13.667969 8.351562 -13.710938 7.878906 -13.804688 C 7.40625 -13.898438 6.953125 -13.855469 6.472656 -13.683594 C 4.753906 -12.90625 3.578125 -11.710938 3.320312 -9.75 C 3.253906 -9.183594 3.1875 -8.617188 3.203125 -8.03125 C 3.238281 -6.640625 3.171875 -5.402344 2.953125 -4.058594 C 2.789062 -3.242188 2.558594 -2.753906 1.808594 -2.367188 C 0.640625 -1.882812 -1.503906 -0.0742188 -1.949219 1.042969 C -2.222656 1.746094 -2.222656 2.417969 -1.628906 3.027344 C -1.441406 3.199219 -1.199219 3.335938 -0.984375 3.378906 Z M -0.660156 2.191406 C -0.789062 2.167969 -0.824219 2.117188 -0.847656 2.019531 C -0.917969 1.917969 -0.933594 1.78125 -0.910156 1.652344 C -0.933594 1.558594 -0.917969 1.472656 -0.847656 1.351562 C -0.207031 0.359375 0.703125 -0.394531 1.839844 -0.929688 C 1.523438 0.4375 0.613281 1.640625 -0.332031 2.125 C -0.433594 2.191406 -0.53125 2.21875 -0.660156 2.191406 Z M -0.660156 2.191406 "/></g></g></g><g fill="#ffffff" fill-opacity="1"><g transform="translate(165.834365, 302.001228)"><g><path d="M -3.277344 10.691406 C -2.886719 10.726562 -2.648438 10.574219 -2.484375 10.238281 C -2.316406 9.859375 -2.148438 9.476562 -2.03125 9.179688 C 0.0390625 3.703125 5.023438 -5.503906 9.847656 -8.957031 C 10.371094 -9.390625 10.929688 -9.6875 11.613281 -9.929688 C 11.660156 -9.96875 11.75 -9.960938 11.878906 -9.949219 C 12.097656 -9.925781 12.257812 -9.777344 12.316406 -9.464844 C 12.367188 -9.0625 12.328125 -8.671875 12.25 -8.328125 C 12.167969 -7.9375 12.046875 -7.597656 11.96875 -7.210938 C 11.859375 -6.558594 11.5 -6.023438 10.808594 -5.691406 C 9 -4.765625 5.332031 -2.347656 4.917969 -0.316406 C 4.707031 0.5 5.175781 1.117188 5.875 1.183594 C 6.089844 1.203125 6.3125 1.183594 6.542969 1.070312 C 8.582031 0.476562 11.15625 -2.445312 12.042969 -4.339844 C 12.417969 -5.050781 12.953125 -5.574219 13.679688 -5.8125 C 14.132812 -5.945312 14.585938 -6.074219 15.042969 -6.25 C 15.5 -6.429688 15.953125 -6.558594 16.40625 -6.691406 C 16.8125 -6.785156 17.179688 -6.925781 17.582031 -7.019531 C 17.988281 -7.113281 18.351562 -7.210938 18.757812 -7.300781 C 19.070312 -7.359375 19.171875 -7.527344 19.160156 -7.835938 C 19.144531 -8.144531 18.90625 -8.386719 18.59375 -8.375 C 18.464844 -8.386719 18.328125 -8.355469 18.152344 -8.328125 C 17.929688 -8.308594 17.746094 -8.238281 17.609375 -8.207031 L 14.441406 -7.324219 C 14.308594 -7.292969 14.167969 -7.21875 14.035156 -7.1875 C 13.898438 -7.15625 13.757812 -7.082031 13.625 -7.050781 C 13.578125 -7.011719 13.53125 -7.015625 13.445312 -7.023438 C 13.226562 -7.042969 13.152344 -7.183594 13.222656 -7.441406 C 13.433594 -8.257812 13.636719 -8.984375 13.410156 -9.84375 C 13.269531 -10.648438 12.871094 -11.085938 12.214844 -11.148438 C 12.039062 -11.164062 11.816406 -11.140625 11.546875 -11.082031 C 10.253906 -10.898438 8.691406 -9.769531 7.175781 -8.199219 C 6.441406 -7.433594 5.695312 -6.539062 4.941406 -5.597656 C 3.480469 -3.671875 2.195312 -1.769531 1.199219 -0.105469 C 0.675781 0.769531 0.253906 1.476562 -0.0664062 2.0625 C -0.226562 2.355469 -0.347656 2.695312 -0.761719 2.875 C -0.769531 2.480469 -0.691406 2.132812 -0.570312 1.792969 C -0.449219 1.453125 -0.328125 1.113281 -0.253906 0.8125 C 1.464844 -4.703125 3.519531 -10.007812 6.253906 -15.070312 C 6.308594 -15.195312 6.363281 -15.277344 6.367188 -15.324219 C 6.527344 -15.617188 6.460938 -15.84375 6.25 -15.949219 C 6.210938 -16 6.125 -16.007812 6.082031 -16.011719 C 5.863281 -16.03125 5.722656 -15.957031 5.621094 -15.792969 C 4.648438 -14.386719 3.160156 -11.316406 2.433594 -9.714844 C -0.105469 -3.929688 -1.996094 1.964844 -3.296875 8.136719 C -3.441406 8.738281 -3.542969 9.34375 -3.601562 9.953125 C -3.640625 10.347656 -3.53125 10.578125 -3.277344 10.691406 Z M 6.394531 -0.128906 C 6.351562 -0.136719 6.269531 -0.1875 6.230469 -0.234375 C 6.148438 -0.285156 6.160156 -0.417969 6.226562 -0.632812 C 7.367188 -1.972656 8.496094 -3.1875 10.148438 -3.863281 C 10.203125 -3.988281 10.289062 -3.980469 10.328125 -3.933594 C 10.410156 -3.835938 10.355469 -3.753906 10.222656 -3.722656 C 9.402344 -2.085938 8.117188 -1.066406 6.621094 -0.195312 C 6.488281 -0.164062 6.441406 -0.125 6.394531 -0.128906 Z M 6.394531 -0.128906 "/></g></g></g><g fill="#ffffff" fill-opacity="1"><g transform="translate(182.937746, 303.468598)"><g><path d="M 0.179688 -3.769531 C 0.75 -3.777344 1.488281 -4.398438 1.878906 -4.753906 C 2.964844 -5.773438 3.914062 -6.835938 4.910156 -8.027344 C 5.042969 -8.160156 5.214844 -8.339844 5.34375 -8.515625 C 5.472656 -8.691406 5.691406 -8.824219 5.996094 -8.960938 C 5.703125 -7.773438 5.453125 -6.632812 5.464844 -5.449219 C 5.472656 -4.617188 5.828125 -4.179688 6.574219 -4.1875 C 6.75 -4.191406 6.878906 -4.191406 6.96875 -4.238281 C 8.804688 -4.5625 11.882812 -7.53125 13.140625 -8.816406 C 13.183594 -8.859375 13.273438 -8.949219 13.316406 -8.992188 C 13.359375 -9.039062 13.359375 -9.082031 13.402344 -9.125 C 13.484375 -9.433594 13.441406 -9.652344 13.21875 -9.78125 C 13.132812 -9.867188 13.042969 -9.910156 12.910156 -9.910156 C 12.867188 -9.910156 12.824219 -9.863281 12.691406 -9.820312 C 12.5625 -9.730469 12.433594 -9.640625 12.34375 -9.554688 C 12.214844 -9.421875 12.085938 -9.332031 11.953125 -9.199219 C 11.5625 -8.886719 11.214844 -8.578125 10.914062 -8.265625 C 10.566406 -7.957031 10.21875 -7.601562 9.828125 -7.292969 C 9.308594 -6.804688 8.742188 -6.445312 8.21875 -6.089844 C 7.828125 -5.867188 7.433594 -5.6875 7.042969 -5.507812 C 7 -5.464844 6.953125 -5.464844 6.867188 -5.464844 C 6.691406 -5.460938 6.601562 -5.589844 6.597656 -5.855469 C 6.578125 -7.738281 7.902344 -10.953125 8.71875 -12.625 C 8.804688 -12.847656 8.890625 -13.023438 9.019531 -13.242188 C 9.105469 -13.417969 9.191406 -13.59375 9.277344 -13.816406 C 9.402344 -14.210938 9.355469 -14.515625 9.046875 -14.6875 C 8.917969 -14.730469 8.828125 -14.773438 8.785156 -14.773438 C 8.652344 -14.773438 8.476562 -14.683594 8.261719 -14.460938 C 8.132812 -14.328125 8.046875 -14.152344 7.960938 -14.019531 C 7.828125 -13.84375 7.742188 -13.667969 7.613281 -13.535156 C 7.355469 -13.179688 7.09375 -12.828125 6.878906 -12.476562 C 6.621094 -12.121094 6.363281 -11.769531 6.101562 -11.457031 C 5.929688 -11.238281 5.800781 -11.105469 5.710938 -11.105469 C 5.667969 -11.105469 5.535156 -11.191406 5.316406 -11.320312 C 4.871094 -11.664062 4.433594 -11.835938 3.996094 -11.832031 C 3.511719 -11.824219 3.03125 -11.644531 2.554688 -11.246094 C 2.25 -11.023438 2.03125 -10.847656 1.902344 -10.667969 C 0.601562 -9.339844 -0.816406 -6.742188 -0.796875 -4.8125 C -0.746094 -4.113281 -0.390625 -3.765625 0.179688 -3.769531 Z M 0.558594 -5.351562 C 0.554688 -5.394531 0.554688 -5.394531 0.511719 -5.394531 L 0.46875 -5.4375 C 0.800781 -7.328125 1.660156 -8.914062 3.003906 -10.113281 C 3.222656 -10.332031 3.746094 -10.644531 4.050781 -10.648438 C 4.269531 -10.652344 4.445312 -10.566406 4.667969 -10.4375 C 4.886719 -10.308594 4.933594 -10.089844 4.847656 -9.824219 C 4.804688 -9.691406 4.71875 -9.648438 4.675781 -9.601562 C 3.507812 -8.144531 2.339844 -6.6875 0.949219 -5.488281 C 0.863281 -5.398438 0.730469 -5.355469 0.558594 -5.351562 Z M 0.558594 -5.351562 "/></g></g></g><g fill="#ffffff" fill-opacity="1"><g transform="translate(195.212436, 303.333553)"><g><path d="M 2.558594 -2.078125 L 2.773438 -2.097656 C 4.84375 -2.539062 6.511719 -3.417969 8.175781 -4.785156 C 10.164062 -6.40625 11.910156 -8.21875 13.660156 -10.035156 C 13.699219 -10.082031 13.777344 -10.179688 13.855469 -10.273438 C 13.894531 -10.324219 13.972656 -10.417969 14.003906 -10.511719 C 14.109375 -10.785156 14.085938 -11.003906 13.9375 -11.164062 C 13.835938 -11.285156 13.695312 -11.359375 13.519531 -11.339844 C 13.476562 -11.335938 13.394531 -11.285156 13.269531 -11.226562 C 13.148438 -11.125 13.027344 -11.023438 12.90625 -10.921875 C 12.789062 -10.777344 12.664062 -10.679688 12.550781 -10.535156 C 11.867188 -9.890625 11.191406 -9.199219 10.511719 -8.554688 C 9.832031 -7.867188 9.15625 -7.179688 8.476562 -6.535156 C 6.941406 -5.226562 4.980469 -3.742188 2.960938 -3.265625 C 2.875 -3.253906 2.785156 -3.246094 2.699219 -3.238281 C 2.617188 -3.183594 2.527344 -3.175781 2.441406 -3.164062 C 0.742188 -2.988281 -0.0976562 -3.867188 0.183594 -5.792969 C 0.484375 -7.9375 1.347656 -9.792969 2.730469 -11.304688 C 3.003906 -11.640625 3.40625 -11.992188 3.886719 -12.042969 C 4.363281 -12.09375 4.703125 -11.820312 4.804688 -11.257812 C 4.996094 -10.707031 4.882812 -10.121094 4.625 -9.609375 C 4.597656 -9.472656 4.523438 -9.335938 4.492188 -9.199219 C 4.421875 -9.058594 4.390625 -8.925781 4.453125 -8.753906 C 4.464844 -8.625 4.652344 -8.511719 4.785156 -8.523438 C 4.828125 -8.53125 4.828125 -8.53125 4.824219 -8.574219 C 4.824219 -8.574219 4.824219 -8.574219 4.867188 -8.578125 C 5.039062 -8.640625 5.160156 -8.742188 5.191406 -8.832031 C 5.835938 -9.824219 6.035156 -10.859375 5.742188 -11.976562 C 5.515625 -12.875 4.460938 -13.25 3.632812 -13.164062 C 3.066406 -13.101562 2.566406 -12.828125 2.089844 -12.339844 C 0.351562 -10.4375 -0.570312 -8.3125 -0.964844 -5.804688 C -0.984375 -5.582031 -1.011719 -5.402344 -0.976562 -5.097656 C -0.910156 -3.207031 0.117188 -1.820312 2.558594 -2.078125 Z M 2.558594 -2.078125 "/></g></g></g><g fill="#ffffff" fill-opacity="1"><g transform="translate(208.96444, 301.777039)"><g><path d="M 1.664062 -2.203125 C 4.632812 -2.789062 8.285156 -8.0625 9.914062 -10.660156 C 10.054688 -10.867188 10.15625 -11.023438 10.175781 -11.160156 C 10.261719 -11.398438 10.175781 -11.605469 9.917969 -11.777344 C 9.816406 -11.847656 9.722656 -11.875 9.59375 -11.847656 C 9.507812 -11.832031 9.386719 -11.761719 9.273438 -11.652344 C 9.171875 -11.496094 9.066406 -11.34375 8.964844 -11.1875 C 8.859375 -11.035156 8.710938 -10.871094 8.609375 -10.71875 C 8.1875 -10.140625 7.761719 -9.566406 7.382812 -9 C 6.960938 -8.425781 6.546875 -7.808594 6.125 -7.234375 C 5.105469 -5.828125 3.398438 -4.0625 1.746094 -3.382812 C 0.929688 -3.21875 0.457031 -3.128906 0.0898438 -4.082031 C -0.234375 -4.597656 -0.371094 -5.0625 -0.335938 -5.5625 C -0.335938 -5.785156 -0.230469 -5.9375 -0.0664062 -6.015625 C 1.953125 -6.636719 4.164062 -9.707031 4.09375 -11.882812 C 4.027344 -12.898438 3.347656 -13.386719 2.488281 -13.21875 C 2.445312 -13.210938 2.359375 -13.195312 2.316406 -13.183594 C 2.28125 -13.132812 2.195312 -13.117188 2.152344 -13.109375 C -0.0585938 -12.316406 -1.140625 -8.976562 -1.476562 -6.8125 C -1.519531 -6.132812 -1.574219 -5.496094 -1.386719 -4.773438 C -1.335938 -4.292969 -1.105469 -3.800781 -0.839844 -3.363281 C -0.328125 -2.347656 0.503906 -1.976562 1.664062 -2.203125 Z M 0.238281 -7.417969 C 0.203125 -7.363281 0.109375 -7.390625 -0.03125 -7.410156 C -0.0742188 -7.398438 -0.132812 -7.476562 -0.15625 -7.605469 C 0.0546875 -9.03125 1.089844 -11.46875 2.46875 -11.964844 C 2.675781 -12.050781 2.820312 -11.988281 2.921875 -11.695312 C 3.195312 -10.320312 1.238281 -8.238281 0.238281 -7.417969 Z M 0.238281 -7.417969 "/></g></g></g></svg>